<svg xmlns="http://www.w3.org/2000/svg" width="16" height="16" viewBox="0 0 16 16">
  <g id="ico_calendar" transform="translate(0)">
    <rect id="長方形_1163" data-name="長方形 1163" width="2.402" height="2.136" transform="translate(1.868 5.182)" fill="#4b4b4b"/>
    <rect id="長方形_1164" data-name="長方形 1164" width="2.403" height="2.136" transform="translate(6.799 5.182)" fill="#4b4b4b"/>
    <rect id="長方形_1165" data-name="長方形 1165" width="2.402" height="2.136" transform="translate(11.73 5.182)" fill="#4b4b4b"/>
    <rect id="長方形_1166" data-name="長方形 1166" width="2.402" height="2.135" transform="translate(1.868 8.655)" fill="#4b4b4b"/>
    <rect id="長方形_1167" data-name="長方形 1167" width="2.403" height="2.135" transform="translate(6.799 8.655)" fill="#4b4b4b"/>
    <rect id="長方形_1168" data-name="長方形 1168" width="2.402" height="2.135" transform="translate(11.73 8.655)" fill="#4b4b4b"/>
    <rect id="長方形_1169" data-name="長方形 1169" width="2.402" height="2.135" transform="translate(1.868 12.263)" fill="#4b4b4b"/>
    <rect id="長方形_1170" data-name="長方形 1170" width="2.403" height="2.135" transform="translate(6.799 12.263)" fill="#4b4b4b"/>
    <rect id="長方形_1171" data-name="長方形 1171" width="2.402" height="2.135" transform="translate(11.73 12.263)" fill="#4b4b4b"/>
    <path id="パス_1563" data-name="パス 1563" d="M101.937,2.6a.5.5,0,0,0,.5-.5V.5a.5.5,0,0,0-1,0V2.1A.5.5,0,0,0,101.937,2.6Z" transform="translate(-98.599)" fill="#4b4b4b"/>
    <path id="パス_1564" data-name="パス 1564" d="M239.324,2.6a.5.5,0,0,0,.5-.5V.5a.5.5,0,0,0-1,0V2.1A.5.5,0,0,0,239.324,2.6Z" transform="translate(-231.324)" fill="#4b4b4b"/>
    <path id="パス_1565" data-name="パス 1565" d="M31.52,44.9v.856a1.041,1.041,0,0,1-2.077,0V44.9H26.9v.856a1.041,1.041,0,0,1-2.077,0V44.9H22.289v.856a1.041,1.041,0,0,1-2.077,0V44.9H17.866V59.591h16V44.9Zm1.423,6.626v7.2H18.789V47.492H32.943Z" transform="translate(-17.866 -43.59)" fill="#4b4b4b"/>
    <path id="パス_1566" data-name="パス 1566" d="M376.7,2.6a.5.5,0,0,0,.5-.5V.5a.5.5,0,0,0-1,0V2.1A.5.5,0,0,0,376.7,2.6Z" transform="translate(-364.041)" fill="#4b4b4b"/>
  </g>
</svg>
