<svg xmlns="http://www.w3.org/2000/svg" width="13" height="14" viewBox="0 0 13 14">
  <g id="ico_calendar" transform="translate(0)">
    <rect id="長方形_1163" data-name="長方形 1163" width="2.402" height="2.136" transform="translate(1.868 4.434)" fill="#fafafa"/>
    <rect id="長方形_1164" data-name="長方形 1164" width="2.403" height="2.136" transform="translate(5.299 4.434)" fill="#fafafa"/>
    <rect id="長方形_1165" data-name="長方形 1165" width="2.402" height="2.136" transform="translate(8.73 4.434)" fill="#fafafa"/>
    <rect id="長方形_1166" data-name="長方形 1166" width="2.402" height="2.135" transform="translate(1.868 7.406)" fill="#fafafa"/>
    <rect id="長方形_1167" data-name="長方形 1167" width="2.403" height="2.135" transform="translate(5.299 7.406)" fill="#fafafa"/>
    <rect id="長方形_1168" data-name="長方形 1168" width="2.402" height="2.135" transform="translate(8.73 7.406)" fill="#fafafa"/>
    <rect id="長方形_1169" data-name="長方形 1169" width="2.402" height="2.135" transform="translate(1.868 10.263)" fill="#fafafa"/>
    <rect id="長方形_1170" data-name="長方形 1170" width="2.403" height="2.135" transform="translate(5.299 10.263)" fill="#fafafa"/>
    <rect id="長方形_1171" data-name="長方形 1171" width="2.402" height="2.135" transform="translate(8.73 10.263)" fill="#fafafa"/>
    <path id="パス_1563" data-name="パス 1563" d="M101.937,2.6a.5.5,0,0,0,.5-.5V.5a.5.5,0,0,0-1,0V2.1A.5.5,0,0,0,101.937,2.6Z" transform="translate(-99.167)" fill="#fafafa"/>
    <path id="パス_1564" data-name="パス 1564" d="M239.324,2.6a.5.5,0,0,0,.5-.5V.5a.5.5,0,0,0-1,0V2.1A.5.5,0,0,0,239.324,2.6Z" transform="translate(-232.824)" fill="#fafafa"/>
    <path id="パス_1565" data-name="パス 1565" d="M28.96,44.9v.74a.844.844,0,0,1-1.687,0V44.9H25.21v.74a.844.844,0,0,1-1.687,0V44.9H21.46v.74a.844.844,0,0,1-1.688,0V44.9H17.866V57.591h13V44.9Zm1.156,5.724v6.221h-11.5V47.139h11.5Z" transform="translate(-17.866 -43.59)" fill="#fafafa"/>
    <path id="パス_1566" data-name="パス 1566" d="M376.7,2.6a.5.5,0,0,0,.5-.5V.5a.5.5,0,0,0-1,0V2.1A.5.5,0,0,0,376.7,2.6Z" transform="translate(-366.473)" fill="#fafafa"/>
  </g>
</svg>
