<svg xmlns="http://www.w3.org/2000/svg" width="71.43" height="70.5" viewBox="0 0 71.43 70.5">
  <g id="グループ_13243" data-name="グループ 13243" transform="translate(-88.047 -159.75)">
    <path id="パス_19397" data-name="パス 19397" d="M1.708,39.76A3.994,3.994,0,0,1,1.292,37.4c.326-.311.712-.633,1.121-.975a17.138,17.138,0,0,0,3.215-3.335c1.187-1.618,3-2.371,5.693-2.371.711,0,1.4.049,2,.091.507.036.963.067,1.342.067a3.084,3.084,0,0,0,.99-.125,24.642,24.642,0,0,0,2.867-1.481c2-1.119,5.03-2.81,6.106-2.81,2.584.858,6.829,2.5,7.588,3.272a1.486,1.486,0,0,0,1.067.5,2.055,2.055,0,0,0,1.366-.723c.212-.2.475-.439.625-.439a5.24,5.24,0,0,0,2.561-1.425A7.015,7.015,0,0,1,39.587,26.5h0c.172,0,.484-.018.888-.044.709-.045,1.682-.106,2.685-.106,2.941,0,3.523.543,3.632.708,2.179,3.34,3.328,3.727,4,3.727h.389a8.838,8.838,0,0,0,4.216-.926,5.2,5.2,0,0,1,2.22-.443,3.637,3.637,0,0,1,2.969,1.071c1.095,1.679,4.427,4.14,6.223,5.329,2.323,1.539,2.3,2.965,2.293,3.731a1.093,1.093,0,0,1-.018.209c-.054,0-.122,0-.158,0H1.708Z" transform="translate(88.657 156.612)" fill="#fafafa"/>
    <path id="パス_19398" data-name="パス 19398" d="M29.9,45.733c2.933,2.6,4.752,7.587,2.251,11.15-.7,1.112-1.639,1.815-1.679,3.049a10.8,10.8,0,0,0,.686,3.91,7.6,7.6,0,0,1-.31,5.034c-.374-1.015-.618-2.052-.993-2.923-.418-1-1.109-1.458-1.6-2.494-1.191-2.231-1.611-5.3.147-7.351a9.419,9.419,0,0,0,1.714-2.684c.727-2.491.111-4.871-.215-7.69h0Z" transform="translate(86.146 153.587)" fill="#fafafa"/>
    <path id="パス_19399" data-name="パス 19399" d="M39.194,45.733c2.933,2.6,4.752,7.587,2.251,11.15-.7,1.112-1.639,1.815-1.679,3.049a10.8,10.8,0,0,0,.686,3.91,7.6,7.6,0,0,1-.31,5.034c-.374-1.015-.618-2.052-.993-2.923-.418-1-1.109-1.458-1.6-2.494-1.191-2.231-1.611-5.3.147-7.351a9.419,9.419,0,0,0,1.714-2.684c.727-2.491.111-4.871-.215-7.69h0Z" transform="translate(83.855 153.587)" fill="#fafafa"/>
    <path id="パス_19400" data-name="パス 19400" d="M48.311,45.733c2.8,2.125,5.009,6.121,3.392,9.635a10.189,10.189,0,0,1-2.2,2.914c-.569.621-.8.812-.9,1.569a8.407,8.407,0,0,0,.919,3.8c.9,1.605.5,3.629-.028,5.222a28.605,28.605,0,0,0-1.058-2.962,3.488,3.488,0,0,0-.756-1A8.3,8.3,0,0,1,45.8,61.862a5.287,5.287,0,0,1,1.181-5.976c1.148-1.188,1.768-1.687,2.2-2.994.507-2.3-.259-4.544-.866-7.158h0Z" transform="translate(82.03 153.587)" fill="#fafafa"/>
    <ellipse id="楕円形_13" data-name="楕円形 13" cx="34.465" cy="34" rx="34.465" ry="34" transform="translate(89.297 161)" fill="none" stroke="#fafafa" stroke-linecap="round" stroke-miterlimit="10" stroke-width="2.5"/>
  </g>
</svg>
