<svg xmlns="http://www.w3.org/2000/svg" width="13" height="14" viewBox="0 0 13 14">
  <path id="Icon_material-smoke-free" data-name="Icon material-smoke-free" d="M3,5.667l4.543,4.667H3v2H9.494L14.043,17l.819-.833L3.813,4.833Zm12.025,4.667H16v2h-.975Zm-1.625,0h.975v2H13.4Zm.552-5.413a2.244,2.244,0,0,0,.65-1.587h-.975a1.22,1.22,0,0,1-1.2,1.233v1a2.649,2.649,0,0,1,2.6,2.713V9.667H16V8.28A3.714,3.714,0,0,0,13.952,4.92ZM11.125,7.467h.994A1.27,1.27,0,0,1,13.4,8.833v.833h.975V8.607A2.18,2.18,0,0,0,12.119,6.5h-.994a1.311,1.311,0,0,1-1.2-1.333A1.163,1.163,0,0,1,11.125,4V3A2.206,2.206,0,0,0,8.948,5.233a2.206,2.206,0,0,0,2.177,2.233Zm1.625,4.82V10.333h-1.9Z" transform="translate(-3 -3)" fill="#4b4b4b"/>
</svg>
