<svg height="689.5" viewBox="0 0 670.3 689.5" width="670.3" xmlns="http://www.w3.org/2000/svg"><path d="m-11554.434-16722.6h370.69l61.31 64h-370.691z" fill="#e2e2e2" transform="translate(11675.507 17281.563)"/><path d="m-11122.682-16667.4v12.834h-371.294l-60.706-63.055v-13.645l61.366 63.912z" fill="#ccc" transform="translate(11675.755 17290.563)"/><text fill="#30312d" font-family="YuMin-Demibold, YuMincho" font-size="18" font-weight="300" letter-spacing=".06em" transform="translate(197.847 595.563)"><tspan x="0" y="0">1F 客室 01 ~ 05</tspan></text><path d="m3 16.176h12v2.824h-12zm14.8 0h1.2v2.824h-1.2zm-2 0h1.2v2.824h-1.2zm.68-7.784a3.42 3.42 0 0 0 .8-2.24 2.946 2.946 0 0 0 -2.68-3.152v1.412a1.629 1.629 0 0 1 1.48 1.741 1.629 1.629 0 0 1 -1.48 1.741v1.412c1.792 0 3.2 1.722 3.2 3.831v2.1h1.2v-2.11a5.367 5.367 0 0 0 -2.52-4.734zm-2.256 2.325h-1.224c-.816 0-1.48-.922-1.48-1.882a1.54 1.54 0 0 1 1.48-1.647v-1.412a2.946 2.946 0 0 0 -2.68 3.153 2.946 2.946 0 0 0 2.68 3.153h1.224c.84 0 1.576.7 1.576 1.929v1.224h1.2v-1.543a2.866 2.866 0 0 0 -2.776-2.974z" transform="translate(353.591 577.563)"/><path d="m-11554.434-16722.6h370.69l61.31 64h-370.691z" fill="#e2e2e2" transform="translate(11675.507 17201.563)"/><path d="m-11122.682-16667.4v12.834h-371.294l-60.706-63.055v-13.645l61.366 63.912z" fill="#ccc" transform="translate(11675.755 17210.563)"/><text fill="#30312d" font-family="YuMin-Demibold, YuMincho" font-size="18" font-weight="300" letter-spacing=".06em" transform="translate(197.847 515.563)"><tspan x="0" y="0">2F 客室 06 ~ 15</tspan></text><path d="m-11554.434-16722.6h370.69l61.31 64h-370.691z" fill="#e2e2e2" transform="translate(11675.507 17121.859)"/><path d="m-11122.682-16667.4v12.834h-371.294l-60.706-63.055v-13.645l61.366 63.912z" fill="#ccc" transform="translate(11675.755 17130.859)"/><text fill="#30312d" font-family="YuMin-Demibold, YuMincho" font-size="18" font-weight="300" letter-spacing=".06em" transform="translate(197.847 435.859)"><tspan x="0" y="0">3F 客室 16 ~ 30</tspan></text><path d="m-11554.434-16722.6h370.69l61.31 64h-370.691z" fill="#e2e2e2" transform="translate(11675.507 17042.006)"/><path d="m-11122.682-16667.4v12.834h-371.294l-60.706-63.055v-13.645l61.366 63.912z" fill="#ccc" transform="translate(11675.755 17051.006)"/><text fill="#30312d" font-family="YuMin-Demibold, YuMincho" font-size="18" font-weight="300" letter-spacing=".06em" transform="translate(197.847 356.006)"><tspan x="0" y="0">4F 客室 31 ~ 45</tspan></text><g fill="#4b4b4b"><path d="m169.5 176.639a2.811 2.811 0 1 0 2.811 2.811 2.814 2.814 0 0 0 -2.811-2.811zm.905 2.033a.222.222 0 1 1 -.222.222.222.222 0 0 1 .217-.222zm-1.078-.578a.187.187 0 1 1 -.187.187.187.187 0 0 1 .185-.187zm2.319 1.356a2.147 2.147 0 0 1 -4.293.013c2.1-1.85 1.98 1.885 4.287-.17.002.052.005.107.005.157z" transform="translate(194.595 170.866)"/><path d="m136.509 140.848a3.973 3.973 0 1 0 .711 4.651h1.633v-3.247h-1.437a3.984 3.984 0 0 0 -.907-1.404zm-.343 5.276a3.484 3.484 0 1 1 1.023-2.467 3.476 3.476 0 0 1 -1.023 2.467zm1.4-3.387h.8v2.278h-.933a3.963 3.963 0 0 0 .13-2.278z" transform="translate(229.962 206.657)"/><path d="m48.545.253a.8.8 0 0 0 -.578-.253h-11.367a.8.8 0 0 0 -.578.253.892.892 0 0 0 -.24.613v13.754a.892.892 0 0 0 .24.613.8.8 0 0 0 .578.253h.727v.514h1.394v-.514h7.121v.514h1.398v-.514h.727a.8.8 0 0 0 .578-.253.892.892 0 0 0 .24-.613v-13.754a.893.893 0 0 0 -.24-.613zm-.487 14.367a.1.1 0 0 1 -.027.068.085.085 0 0 1 -.064.028h-11.367a.085.085 0 0 1 -.064-.028.1.1 0 0 1 -.027-.068v-.947h11.549zm0-1.428h-11.546v-12.326a.1.1 0 0 1 .027-.066.087.087 0 0 1 .061-.03h11.367a.087.087 0 0 1 .064.03.1.1 0 0 1 .027.068z" transform="translate(321.808 342.006)"/><path d="m360.671 343.889h6.845v1.939h-6.845z"/></g><path d="m-11554.434-16722.6h370.69l61.31 64h-370.691z" fill="#e2e2e2" transform="translate(11675.507 16962.154)"/><path d="m-11122.682-16667.4v12.834h-371.294l-60.706-63.055v-13.645l61.366 63.912z" fill="#ccc" transform="translate(11675.755 16971.154)"/><text fill="#30312d" font-family="YuMin-Demibold, YuMincho" font-size="18" font-weight="300" letter-spacing=".06em" transform="translate(197.847 276.154)"><tspan x="0" y="0">5F 客室 46 ~ 60</tspan></text><path d="m-11554.434-16722.6h370.69l61.31 64h-370.691z" fill="#e2e2e2" transform="translate(11675.507 16882.302)"/><path d="m-11122.682-16667.4v12.834h-371.294l-60.706-63.055v-13.645l61.366 63.912z" fill="#ccc" transform="translate(11675.755 16891.302)"/><text fill="#30312d" font-family="YuMin-Demibold, YuMincho" font-size="18" font-weight="300" letter-spacing=".06em" transform="translate(197.847 196.302)"><tspan x="0" y="0">6F 客室 61 ~ 75</tspan></text><path d="m-11554.434-16722.6h370.69l61.31 64h-370.691z" fill="#e2e2e2" transform="translate(11675.507 16802.598)"/><path d="m-11122.682-16667.4v12.834h-371.294l-60.706-63.055v-13.645l61.366 63.912z" fill="#ccc" transform="translate(11675.755 16811.598)"/><text fill="#30312d" font-family="YuMin-Demibold, YuMincho" font-size="18" font-weight="300" letter-spacing=".06em" transform="translate(197.847 116.598)"><tspan x="0" y="0">7F 客室 76 ~ 80</tspan></text><path d="m-11554.434-16722.6h370.69l61.31 64h-370.691z" fill="#e2e2e2" transform="translate(11675.507 16722.598)"/><path d="m-11122.682-16667.4v12.834h-371.294l-60.706-63.055v-13.645l61.366 63.912z" fill="#ccc" transform="translate(11675.755 16731.598)"/><text fill="#30312d" font-family="YuMin-Demibold, YuMincho" font-size="18" font-weight="300" letter-spacing=".06em" transform="translate(197.884 36.598)"><tspan x="0" y="0">8F 最上階</tspan></text><path d="m-13954-16708h106.639" fill="none" stroke="#707070" stroke-linecap="round" stroke-width="3" transform="translate(14516.162 17219)"/><path d="m-13954-16708h108" fill="none" stroke="#707070" stroke-linecap="round" stroke-width="3" transform="translate(13955.499 16717)"/><path d="m-13954-16708h41" fill="none" stroke="#707070" stroke-linecap="round" stroke-width="3" transform="matrix(0 -1 1 0 16907.499 -13266)"/></svg>