<svg height="80" viewBox="0 0 80 80" width="80" xmlns="http://www.w3.org/2000/svg"><g transform="translate(-503 -5457)"><g fill="none" stroke="#4f8164" stroke-width="2"><circle cx="543" cy="5497" r="40" stroke="none"/><circle cx="543" cy="5497" fill="none" r="39"/></g><path d="m3 10.619 13.98 13.333h-13.98v5.714h19.98l14 13.334 2.52-2.381-34-32.381zm37 13.333h3v5.714h-3zm-5 0h3v5.714h-3zm1.7-15.466a6.186 6.186 0 0 0 2-4.533h-3a3.619 3.619 0 0 1 -3.7 3.523v2.857a7.85 7.85 0 0 1 8 7.752v3.962h3v-3.961a10.557 10.557 0 0 0 -6.3-9.6zm-8.7 7.276h3.06a3.762 3.762 0 0 1 3.94 3.9v2.381h3v-3.024c0-3.429-3.2-6.019-6.94-6.019h-3.06a3.865 3.865 0 0 1 -3.7-3.81 3.468 3.468 0 0 1 3.7-3.333v-2.857a6.547 6.547 0 0 0 -6.7 6.381 6.547 6.547 0 0 0 6.7 6.381zm5 13.771v-5.581h-5.86z" fill="#4f8164" transform="translate(520 5474)"/></g></svg>