<svg height="80" viewBox="0 0 80 80" width="80" xmlns="http://www.w3.org/2000/svg"><g fill="none" stroke="#4f8164" stroke-width="2"><circle cx="40" cy="40" r="40" stroke="none"/><circle cx="40" cy="40" fill="none" r="39"/></g><g fill="#4f8164"><path d="m4.063 45.307c-1.831-2.048-5.184-.107-3.684 3.119 1 2.154 2.928 7.419 5.622 11.211s5.566 3.387 8.467 4.3l2.084 1.049 14.254 15.966 2.883-2.441.011-.011c-.422-.473-13.386-14.99-18.512-20.729-5.069-5.681-10.234-11.471-11.125-12.464z" transform="translate(19.997 -20.952)"/><path d="m268 8.17-4.973 5.722a.877.877 0 0 1 -1.238.085l-.177-.153a.877.877 0 0 1 -.085-1.237l5-5.748a1.489 1.489 0 0 0 -.178-2.306 1.491 1.491 0 0 0 -2.308.146l-5 5.748a.876.876 0 0 1 -1.237.085l-.176-.153a.876.876 0 0 1 -.088-1.237l4.978-5.722a1.6 1.6 0 1 0 -2.418-2.073l-4.75 5.462c-2.65 3.026-2.609 4.444-2.236 6.43.3 1.6.749 2.752-.9 4.644l-2.428 2.793 2.547 2.927 2.781-3.2c1.643-1.891 2.846-1.61 4.474-1.533 2.02.1 3.429-.062 6.056-3.105 0 0 3.032-3.49 4.75-5.465a1.6 1.6 0 1 0 -2.394-2.11z" transform="translate(-210.841 19.283)"/><path d="m60.074 322.692-10.974 12.621 2.9 2.522 10.746-12.36-2.212-2.544z" transform="translate(-25.16 -277.834)"/></g></svg>