<svg height="80" viewBox="0 0 80 80" width="80" xmlns="http://www.w3.org/2000/svg"><g transform="translate(-503 -5457)"><g fill="none" stroke="#4f8164" stroke-width="2"><circle cx="543" cy="5497" r="40" stroke="none"/><circle cx="543" cy="5497" fill="none" r="39"/></g><path d="m43.65 10.2a33.441 33.441 0 0 0 -43.3 0 .988.988 0 0 0 -.024 1.488l2.354 2.2a1.167 1.167 0 0 0 1.54.025 27.6 27.6 0 0 1 35.561 0 1.168 1.168 0 0 0 1.54-.025l2.354-2.2a.988.988 0 0 0 -.025-1.488zm-21.65 12.764a4.15 4.15 0 1 0 0 8.286 4.15 4.15 0 1 0 0-8.286zm13.934-5.411a22.1 22.1 0 0 0 -27.867 0 .983.983 0 0 0 -.039 1.5l2.368 2.2a1.174 1.174 0 0 0 1.516.052 16.22 16.22 0 0 1 20.177 0 1.173 1.173 0 0 0 1.516-.052l2.368-2.2a.983.983 0 0 0 -.039-1.5z" fill="#4f8164" transform="translate(521 5480.25)"/></g></svg>