<svg xmlns="http://www.w3.org/2000/svg" width="109.094" height="50.5" viewBox="0 0 109.094 50.5">
  <g id="ico_logo" transform="translate(0.601 0.5)">
    <path id="パス_19283" data-name="パス 19283" d="M1.562,35.7a2.8,2.8,0,0,1-.288-1.647c.226-.217.493-.442.777-.679a11.913,11.913,0,0,0,2.227-2.325A4.459,4.459,0,0,1,8.222,29.4c.493,0,.968.034,1.387.063.352.025.667.047.929.047a2.124,2.124,0,0,0,.686-.087,17.032,17.032,0,0,0,1.986-1.032c1.387-.78,3.485-1.959,4.23-1.959,1.79.6,4.731,1.741,5.257,2.281a1.027,1.027,0,0,0,.739.352,1.421,1.421,0,0,0,.946-.5c.147-.136.329-.306.433-.306a3.623,3.623,0,0,0,1.774-.993,4.857,4.857,0,0,1,1.213-.8h0c.119,0,.335-.013.615-.031.491-.031,1.165-.074,1.86-.074,2.038,0,2.441.378,2.516.494,1.51,2.328,2.305,2.6,2.772,2.6h.269a6.091,6.091,0,0,0,2.921-.645,3.583,3.583,0,0,1,1.538-.309,2.511,2.511,0,0,1,2.057.746,18.854,18.854,0,0,0,4.311,3.715c1.609,1.073,1.6,2.067,1.589,2.6a.766.766,0,0,1-.013.145c-.038,0-.085,0-.109,0H1.562Z" transform="translate(-0.29 -10.05)" fill="#fafafa"/>
    <path id="パス_19284" data-name="パス 19284" d="M29.99,26.513h0c1.67,0,2.086.261,2.147.307,1.6,2.468,2.521,2.785,3.142,2.785h.27a6.519,6.519,0,0,0,3.125-.694,3.174,3.174,0,0,1,1.334-.261,2.166,2.166,0,0,1,1.674.538c.984,1.517,4.09,3.613,4.441,3.847,1.139.76,1.347,1.431,1.381,1.912H1.56a3.1,3.1,0,0,1-.157-.953c.2-.193.422-.375.65-.566a12.3,12.3,0,0,0,2.3-2.406,4,4,0,0,1,3.575-1.465c.476,0,.943.033,1.355.063.347.025.676.048.962.048a2.524,2.524,0,0,0,.835-.112,16.138,16.138,0,0,0,2.061-1.066,19.175,19.175,0,0,1,3.978-1.9A23.808,23.808,0,0,1,22.08,28.73a1.469,1.469,0,0,0,1.066.49,1.86,1.86,0,0,0,1.257-.627c.064-.06.156-.145.214-.187a4.126,4.126,0,0,0,1.965-1.086,7.135,7.135,0,0,1,1-.7c.14,0,.33-.015.578-.031.485-.031,1.151-.073,1.831-.073m0-.912c-1.1,0-2.15.105-2.477.105-.7,0-2.291,1.792-2.987,1.792-.546,0-.911.811-1.38.811a.581.581,0,0,1-.412-.214c-.7-.715-4.333-2.032-5.376-2.389a.646.646,0,0,0-.207-.03c-1.33,0-5.378,2.679-6.363,3.016a1.754,1.754,0,0,1-.538.063c-.573,0-1.406-.11-2.317-.111a4.973,4.973,0,0,0-4.313,1.84A18.43,18.43,0,0,1,.633,33.47c-.363.361.032,2.389.544,2.389H47.843c.294,0,.569-.013.577-.6s0-1.792-1.792-2.987a18.435,18.435,0,0,1-4.181-3.584,2.929,2.929,0,0,0-2.44-.954,4.035,4.035,0,0,0-1.742.357,5.648,5.648,0,0,1-2.716.6h-.27c-.7,0-1.694-1.316-2.389-2.389-.369-.569-1.662-.7-2.9-.7h0Z" transform="translate(0 -9.756)" fill="#fafafa"/>
    <path id="パス_19285" data-name="パス 19285" d="M29.09,45.733c2.044,1.814,3.313,5.289,1.569,7.773-.49.775-1.142,1.265-1.17,2.126a7.532,7.532,0,0,0,.478,2.726,5.3,5.3,0,0,1-.216,3.509c-.261-.707-.431-1.431-.692-2.038-.291-.694-.773-1.016-1.116-1.738-.83-1.555-1.123-3.7.1-5.125a6.566,6.566,0,0,0,1.195-1.871c.507-1.737.077-3.4-.15-5.361h0Z" transform="translate(-10.471 -17.674)" fill="#fafafa"/>
    <path id="パス_19286" data-name="パス 19286" d="M38.382,45.733c2.044,1.814,3.313,5.289,1.569,7.773-.49.775-1.142,1.265-1.17,2.126a7.532,7.532,0,0,0,.478,2.726,5.3,5.3,0,0,1-.216,3.509c-.261-.707-.431-1.431-.692-2.038-.291-.694-.773-1.016-1.116-1.738-.83-1.555-1.123-3.7.1-5.125a6.566,6.566,0,0,0,1.195-1.871c.507-1.737.077-3.4-.15-5.361h0Z" transform="translate(-14.162 -17.674)" fill="#fafafa"/>
    <path id="パス_19287" data-name="パス 19287" d="M47.411,45.733C49.361,47.214,50.9,50,49.775,52.45a7.1,7.1,0,0,1-1.532,2.032c-.4.433-.555.566-.624,1.094a5.861,5.861,0,0,0,.64,2.651,4.636,4.636,0,0,1-.019,3.64A19.94,19.94,0,0,0,47.5,59.8a2.431,2.431,0,0,0-.527-.7,5.789,5.789,0,0,1-1.32-2.128,3.686,3.686,0,0,1,.823-4.166,5.03,5.03,0,0,0,1.535-2.087c.353-1.606-.181-3.168-.6-4.99h0Z" transform="translate(-17.631 -17.674)" fill="#fafafa"/>
    <path id="パス_19288" data-name="パス 19288" d="M91.939,15.5c0,1.46-.029,1.693.117,1.971.175.292.555.307,1.168.365.1.015.131.029.131.175s-.029.175-.145.175c-.687-.015-1.475-.044-2.146-.044-.628,0-1.4.015-2.059.044-.088,0-.1-.015-.1-.161s.015-.175.1-.19c.6-.058.876-.058,1.036-.365a4.678,4.678,0,0,0,.19-1.971V10.2c0-1.4-.015-1.591-.19-1.912-.131-.277-.467-.292-1.08-.35-.088-.015-.117-.029-.117-.19s.029-.2.117-.2c.672.015,1.46.058,2.1.058.672,0,1.416-.044,2.044-.058.131,0,.175.029.175.2s-.044.175-.146.19c-.555.058-.876.058-1.052.35a5.738,5.738,0,0,0-.146,1.912v2.073c.934.044,1.752.044,2.614.044s1.62,0,2.54-.044V10.2c0-1.4,0-1.606-.145-1.912s-.512-.292-1.125-.35c-.1-.015-.116-.029-.116-.19s.029-.2.131-.2c.686.015,1.474.058,2.146.058.628,0,1.372-.044,2.015-.058.146,0,.175.029.175.19s-.029.19-.161.2c-.569.058-.847.058-1.007.35a4.556,4.556,0,0,0-.2,1.912v5.3c0,1.46.015,1.664.19,1.971s.511.307,1.139.365c.088.015.1.044.1.19s-.029.161-.131.161c-.716-.015-1.475-.044-2.117-.044-.672,0-1.431.029-2.073.044-.117,0-.132-.015-.132-.161s.03-.175.132-.19c.584-.058.847-.058,1.007-.365a5.329,5.329,0,0,0,.175-1.971v-2.57c-.92-.058-1.693-.058-2.54-.058s-1.679,0-2.614.058Z" transform="translate(-34.745 -2.662)" fill="#fafafa"/>
    <path id="パス_19289" data-name="パス 19289" d="M121.014,12.694a5.658,5.658,0,0,1-11.314.029,5.658,5.658,0,0,1,11.314-.029Zm-9.286,0c0,3.08,1.445,5.081,3.62,5.081s3.636-2,3.636-5.037c0-3.095-1.489-5.081-3.636-5.081S111.729,9.672,111.729,12.694Z" transform="translate(-42.946 -2.511)" fill="#fafafa"/>
    <path id="パス_19290" data-name="パス 19290" d="M134.225,10.2c0-1.343-.015-1.577-.161-1.869-.145-.263-.467-.263-.832-.263a2.756,2.756,0,0,0-1.737.511,4.535,4.535,0,0,0-1.052,1.562c-.029.073-.058.117-.234.088s-.161-.073-.161-.161c.117-.745.219-1.781.277-2.525,1.664.044,3.212.058,4.8.058,1.547,0,3.154-.015,4.832-.058.058.745.161,1.781.263,2.525,0,.088,0,.131-.161.161-.19.029-.219-.015-.248-.088a4.041,4.041,0,0,0-1.022-1.562,2.753,2.753,0,0,0-1.782-.511c-.365,0-.657-.029-.861.292a4.265,4.265,0,0,0-.19,1.839v5.3c0,1.46-.015,1.62.131,1.942.146.292.569.307,1.124.365.1.015.132.044.132.19s-.03.19-.146.19c-.628-.029-1.445-.044-2.1-.044s-1.445.015-2.015.044c-.1,0-.132-.029-.132-.175s.03-.19.132-.2c.511-.058.847-.073,1.007-.365a5.533,5.533,0,0,0,.131-1.942V10.2Z" transform="translate(-50.946 -2.662)" fill="#fafafa"/>
    <path id="パス_19291" data-name="パス 19291" d="M151.3,15.5a4.227,4.227,0,0,0,.2,1.766c.234.394.759.423,1.4.423a3.618,3.618,0,0,0,2.512-.7,5.932,5.932,0,0,0,1.168-1.489c.044-.1.088-.146.234-.1.19.058.175.117.161.2a18.058,18.058,0,0,1-.759,2.584c-1.284-.029-2.628-.044-3.839-.044-1.285,0-2.686.015-3.985.044-.1,0-.132-.029-.132-.175s.029-.175.132-.19c.555-.058.8-.073.963-.38a5.056,5.056,0,0,0,.19-1.942V10.2c0-1.4-.014-1.591-.175-1.912-.146-.277-.453-.292-1.066-.35-.1-.015-.131-.029-.131-.19s.029-.2.131-.2c1.285.044,2.628.058,3.869.058,1.2,0,2.482-.015,3.752-.058.058.745.161,1.723.277,2.482.014.088-.015.146-.161.175s-.218-.015-.248-.1a3.815,3.815,0,0,0-.993-1.5,3.186,3.186,0,0,0-2.19-.526c-.526,0-.978.029-1.168.365A4.744,4.744,0,0,0,151.3,10.2v2.131c.234.015.569.015.817.015a3.616,3.616,0,0,0,1.839-.321,1.57,1.57,0,0,0,.569-.993c.015-.088.044-.131.219-.131s.175.044.175.146c-.015.526-.029,1.036-.029,1.533,0,.54.014,1.168.029,1.693,0,.117-.015.161-.175.161s-.19-.044-.219-.146a1.921,1.921,0,0,0-.584-1.095,3.9,3.9,0,0,0-1.825-.35c-.248,0-.584,0-.817.015V15.5Z" transform="translate(-58.094 -2.662)" fill="#fafafa"/>
    <path id="パス_19292" data-name="パス 19292" d="M167.173,15.5a4.511,4.511,0,0,0,.19,1.766c.248.394.774.423,1.4.423a3.792,3.792,0,0,0,2.5-.745,5.442,5.442,0,0,0,1.139-1.46c.058-.1.088-.131.248-.088s.161.117.145.2a20.163,20.163,0,0,1-.759,2.584c-1.3-.029-2.642-.044-3.854-.044-1.285,0-2.672.015-3.971.044-.1,0-.132-.029-.132-.175s.029-.175.132-.19c.554-.058.831-.073,1.007-.38a4.773,4.773,0,0,0,.19-1.942V10.2c0-1.4-.015-1.591-.175-1.912-.146-.277-.468-.292-1.052-.35-.116-.015-.145-.029-.145-.19s.029-.2.145-.2c.628.015,1.4.058,2.073.058s1.446-.044,2.074-.058c.116,0,.161.029.161.2s-.044.175-.131.19c-.555.058-.861.058-1.022.35a5.271,5.271,0,0,0-.161,1.912v5.3Z" transform="translate(-64.307 -2.662)" fill="#fafafa"/>
    <path id="パス_19293" data-name="パス 19293" d="M96.152,44.057c-1.814,5.2-3.952,8.476-7.337,11.347-.108.082-.38-.137-.3-.246a30.881,30.881,0,0,0,4.223-9.3,27.9,27.9,0,0,0,.758-3.992c3.276.793,3.9,1.066,3.9,1.477,0,.3-.325.492-1.246.71Zm3.6-4.976a23.224,23.224,0,0,0-.19-3.828c3.438.355,3.926.465,3.926.875,0,.328-.244.519-1.056.766V46.71c0,5.387.136,8.421.136,10.008,0,1.148-.217,1.777-.894,2.242a4.654,4.654,0,0,1-2.355.629c-.569,0-.758-.192-.839-.684-.082-1.012-.785-1.668-3.114-2.352-.136-.027-.136-.383,0-.383,1.3.109,2.924.218,3.953.218.325,0,.433-.082.433-.383V39.081Zm11.262,15.476c-1,0-1.272-.6-1.706-3.144a20.3,20.3,0,0,0-3.98-9.105c-.082-.109.19-.3.3-.218,4.143,3.144,7.12,7.492,7.12,10.336,0,1.285-.649,2.133-1.733,2.133Z" transform="translate(-34.631 -13.569)" fill="#fafafa"/>
    <path id="パス_19294" data-name="パス 19294" d="M137.227,53.867c0,.766-.434,1.094-1.354,1.094-.839,0-1.192-.246-1.192-.9,0-1.723.19-3.883.19-10.773,0-2.543-.027-5.086-.135-7.629a17.65,17.65,0,0,1,2.788,1.257h6.362c.948-1.066,1.164-1.23,1.381-1.23.271,0,.515.164,1.435.9.406.328.569.519.569.738,0,.246-.19.465-.758.821v2.434c0,6.426.136,11.128.136,12.578,0,.71-.515,1.066-1.435,1.066-.7,0-1.055-.246-1.055-.848v-.957h-6.931v1.449Zm2.328-9.843v-6.48h-2.328v6.48Zm-2.328,7.765h2.328V44.653h-2.328Zm6.931-14.245H141.8v6.48h2.356Zm0,7.109H141.8v7.136h2.356V44.653ZM154.256,51c0,2.789.081,4.813.081,5.988a3.037,3.037,0,0,1-.46,1.75,3.007,3.007,0,0,1-2.6.985c-.406,0-.488-.082-.569-.629-.217-1.094-.894-1.5-3.465-2.051-.163-.027-.136-.437.027-.437,1.272.082,2.68.164,3.764.164.515,0,.6-.082.6-.547V39.867H149a9.025,9.025,0,0,0-1.76.219l-.3-1.066a12.26,12.26,0,0,0,2.058.219h5.848c1.3-1.64,1.625-1.859,1.814-1.859.243,0,.541.218,1.814,1.285.569.493.785.738.785.93s-.081.273-.352.273h-4.657V51Z" transform="translate(-52.808 -13.727)" fill="#fafafa"/>
    <ellipse id="楕円形_4" data-name="楕円形 4" cx="24.026" cy="24" rx="24.026" ry="24" transform="translate(0.649 0.75)" fill="none" stroke="#fafafa" stroke-miterlimit="10" stroke-width="2.5"/>
  </g>
</svg>
