<svg xmlns="http://www.w3.org/2000/svg" width="155.914" height="63.5" viewBox="0 0 155.914 63.5">
  <g id="ico_logo" transform="translate(0.759 -5.422)">
    <path id="パス_19353" data-name="パス 19353" d="M1.733,40.545a4.25,4.25,0,0,1-.438-2.5c.343-.329.749-.671,1.179-1.032a18.09,18.09,0,0,0,3.382-3.53c1.249-1.712,3.151-2.509,5.989-2.509.748,0,1.469.052,2.107.1.534.038,1.013.071,1.411.071a3.225,3.225,0,0,0,1.042-.132,25.86,25.86,0,0,0,3.016-1.567c2.107-1.185,5.291-2.975,6.423-2.975,2.718.908,7.184,2.643,7.982,3.464a1.559,1.559,0,0,0,1.122.534,2.158,2.158,0,0,0,1.437-.766c.223-.207.5-.465.658-.465.767,0,1.66-.7,2.694-1.508a7.374,7.374,0,0,1,1.843-1.213h0c.181,0,.509-.019.934-.047.746-.047,1.77-.113,2.824-.113,3.094,0,3.707.574,3.821.75,2.292,3.536,3.5,3.945,4.21,3.945h.409a9.248,9.248,0,0,0,4.435-.98,5.441,5.441,0,0,1,2.335-.469,3.814,3.814,0,0,1,3.123,1.133c1.152,1.777,4.657,4.383,6.547,5.641,2.444,1.629,2.424,3.138,2.413,3.949a1.163,1.163,0,0,1-.019.221c-.057,0-.128,0-.166,0H1.733Z" transform="translate(-0.056 -2.344)" fill="none"/>
    <path id="パス_19358" data-name="パス 19358" d="M93.543,19.627c0,2.217-.044,2.571.177,2.993.266.443.842.466,1.773.554.155.022.2.044.2.266,0,.244-.044.266-.221.266-1.043-.022-2.24-.067-3.259-.067-.953,0-2.129.022-3.126.067-.133,0-.155-.022-.155-.244s.022-.266.155-.288c.909-.089,1.33-.089,1.574-.554a7.1,7.1,0,0,0,.288-2.993V11.579c0-2.128-.022-2.416-.288-2.9-.2-.421-.709-.443-1.64-.532-.133-.022-.177-.044-.177-.288,0-.266.044-.31.177-.31,1.02.022,2.217.089,3.193.089,1.02,0,2.15-.066,3.1-.089.2,0,.266.044.266.31,0,.244-.067.266-.222.288-.842.089-1.33.089-1.6.532a8.714,8.714,0,0,0-.222,2.9v3.148c1.419.066,2.661.066,3.969.066,1.286,0,2.461,0,3.857-.066V11.579c0-2.128,0-2.438-.221-2.9-.222-.443-.777-.443-1.708-.532-.155-.022-.176-.044-.176-.288,0-.266.044-.31.2-.31,1.042.022,2.239.089,3.259.089.953,0,2.084-.066,3.059-.089.222,0,.266.044.266.288,0,.266-.044.288-.244.31-.864.089-1.286.089-1.53.532a6.918,6.918,0,0,0-.31,2.9v8.048c0,2.217.022,2.527.288,2.993.266.443.776.466,1.729.554.133.022.155.066.155.288s-.044.244-.2.244c-1.087-.022-2.24-.067-3.214-.067-1.02,0-2.173.044-3.148.067-.177,0-.2-.022-.2-.244s.045-.266.2-.288c.887-.089,1.286-.089,1.529-.554a8.091,8.091,0,0,0,.266-2.993v-3.9c-1.4-.089-2.571-.089-3.857-.089-1.308,0-2.55,0-3.969.089v3.9Z" transform="translate(-15.841 -0.519)" fill="#30312d"/>
    <path id="パス_19359" data-name="パス 19359" d="M126.88,15.563a8.591,8.591,0,0,1-17.18.044,8.234,8.234,0,0,1,8.579-8.447C123.288,7.161,126.88,10.62,126.88,15.563Zm-14.1,0c0,4.677,2.195,7.715,5.5,7.715S123.8,20.24,123.8,15.63c0-4.7-2.261-7.715-5.521-7.715S112.78,10.974,112.78,15.563Z" transform="translate(-17.612 -0.49)" fill="#30312d"/>
    <path id="パス_19360" data-name="パス 19360" d="M136.391,11.58c0-2.039-.022-2.394-.245-2.837-.221-.4-.709-.4-1.264-.4a4.185,4.185,0,0,0-2.637.776,6.886,6.886,0,0,0-1.6,2.372c-.044.111-.089.177-.355.133-.245-.044-.245-.111-.245-.244.177-1.131.332-2.7.421-3.835,2.527.067,4.878.089,7.294.089,2.35,0,4.789-.022,7.337-.089.089,1.131.244,2.7.4,3.835,0,.133,0,.2-.244.244-.288.044-.333-.022-.377-.133a6.135,6.135,0,0,0-1.552-2.372,4.181,4.181,0,0,0-2.705-.776c-.554,0-1-.044-1.308.443a6.476,6.476,0,0,0-.288,2.793v8.048c0,2.217-.022,2.461.2,2.948.222.443.865.466,1.707.554.155.022.2.067.2.288,0,.244-.045.288-.222.288-.953-.044-2.195-.067-3.193-.067-1.02,0-2.195.022-3.059.067-.155,0-.2-.044-.2-.266,0-.244.045-.288.2-.31.776-.089,1.286-.111,1.53-.554a8.4,8.4,0,0,0,.2-2.948V11.58Z" transform="translate(-19.327 -0.519)" fill="#30312d"/>
    <path id="パス_19361" data-name="パス 19361" d="M152.916,19.627a6.418,6.418,0,0,0,.31,2.682c.355.6,1.153.643,2.128.643a5.494,5.494,0,0,0,3.814-1.064,9.008,9.008,0,0,0,1.773-2.261c.066-.155.133-.222.355-.155.288.089.266.177.244.31a27.423,27.423,0,0,1-1.153,3.924c-1.95-.044-3.99-.067-5.83-.067-1.951,0-4.079.022-6.052.067-.156,0-.2-.044-.2-.266s.044-.266.2-.288c.842-.089,1.218-.111,1.463-.576a7.677,7.677,0,0,0,.288-2.948V11.58c0-2.128-.021-2.416-.266-2.9-.222-.421-.687-.443-1.618-.532-.155-.022-.2-.044-.2-.288,0-.266.044-.31.2-.31,1.951.067,3.99.089,5.874.089,1.819,0,3.769-.022,5.7-.089.089,1.131.244,2.616.421,3.768.021.133-.022.222-.245.266-.244.022-.332-.022-.376-.155a5.793,5.793,0,0,0-1.508-2.283c-.621-.554-1.6-.8-3.325-.8-.8,0-1.485.044-1.774.554a7.2,7.2,0,0,0-.221,2.682v3.236c.355.022.864.022,1.241.022a5.491,5.491,0,0,0,2.793-.488,2.384,2.384,0,0,0,.864-1.507c.022-.133.067-.2.333-.2.244,0,.266.067.266.222-.022.8-.044,1.574-.044,2.328,0,.82.021,1.773.044,2.571,0,.177-.022.244-.266.244s-.288-.067-.333-.222a2.917,2.917,0,0,0-.887-1.663,5.916,5.916,0,0,0-2.771-.532c-.377,0-.887,0-1.241.022v4.012Z" transform="translate(-20.978 -0.519)" fill="#30312d"/>
    <path id="パス_19362" data-name="パス 19362" d="M168.8,19.627a6.85,6.85,0,0,0,.288,2.682c.377.6,1.175.643,2.129.643a5.759,5.759,0,0,0,3.791-1.131,8.265,8.265,0,0,0,1.729-2.217c.089-.155.133-.2.377-.133.244.089.244.177.221.31a30.614,30.614,0,0,1-1.153,3.924c-1.973-.044-4.012-.067-5.852-.067-1.951,0-4.057.022-6.029.067-.156,0-.2-.044-.2-.266s.044-.266.2-.288c.841-.089,1.263-.111,1.529-.576a7.248,7.248,0,0,0,.288-2.948V11.58c0-2.128-.022-2.416-.266-2.9-.222-.421-.71-.443-1.6-.532-.176-.022-.221-.044-.221-.288,0-.266.044-.31.221-.31.953.022,2.129.089,3.148.089s2.2-.067,3.149-.089c.176,0,.244.044.244.31,0,.244-.067.266-.2.288-.842.089-1.308.089-1.553.532a8,8,0,0,0-.244,2.9v8.048Z" transform="translate(-22.19 -0.519)" fill="#30312d"/>
    <path id="パス_19363" data-name="パス 19363" d="M100.118,48.622c-2.754,7.889-6,12.871-11.141,17.23-.164.125-.576-.208-.453-.374a46.891,46.891,0,0,0,6.413-14.117A42.362,42.362,0,0,0,96.089,45.3c4.975,1.2,5.92,1.619,5.92,2.243,0,.456-.493.747-1.892,1.079Zm5.468-7.556a35.267,35.267,0,0,0-.288-5.812c5.22.539,5.961.706,5.961,1.328,0,.5-.37.789-1.6,1.163V52.649c0,8.18.206,12.788.206,15.2,0,1.744-.329,2.7-1.357,3.4a7.067,7.067,0,0,1-3.576.955c-.864,0-1.152-.291-1.275-1.038-.124-1.536-1.192-2.533-4.728-3.571-.206-.042-.206-.581,0-.581,1.974.166,4.441.332,6,.332.493,0,.658-.125.658-.581v-25.7Zm17.1,23.5c-1.52,0-1.932-.913-2.59-4.774a30.821,30.821,0,0,0-6.043-13.826c-.124-.166.288-.457.452-.332,6.291,4.774,10.812,11.376,10.812,15.694,0,1.952-.986,3.238-2.631,3.238Z" transform="translate(-15.927 -3.601)" fill="#30312d"/>
    <path id="パス_19364" data-name="パス 19364" d="M138.546,63.308c0,1.163-.659,1.661-2.056,1.661-1.275,0-1.809-.374-1.809-1.37,0-2.616.288-5.9.288-16.358,0-3.862-.041-7.722-.205-11.584A26.8,26.8,0,0,1,139,37.566h9.661c1.439-1.619,1.768-1.868,2.1-1.868.411,0,.781.249,2.179,1.37.617.5.864.789.864,1.12,0,.374-.288.706-1.151,1.246v3.7c0,9.757.206,16.9.206,19.1,0,1.079-.781,1.619-2.179,1.619-1.069,0-1.6-.374-1.6-1.288V61.107H138.547v2.2Zm3.535-14.947v-9.84h-3.535v9.84Zm-3.535,11.791h3.535V49.316h-3.535Zm10.525-21.631h-3.577v9.84h3.577Zm0,10.8h-3.577V60.152h3.577V49.316Zm15.334,9.632c0,4.235.124,7.308.124,9.092a4.612,4.612,0,0,1-.7,2.657c-.74,1-2.014,1.5-3.946,1.5-.617,0-.741-.125-.864-.955-.329-1.661-1.357-2.283-5.262-3.114-.248-.042-.206-.664.041-.664,1.932.125,4.069.249,5.715.249.781,0,.9-.125.9-.83V42.05h-3.987a13.706,13.706,0,0,0-2.672.333l-.453-1.619a18.616,18.616,0,0,0,3.125.333h8.88c1.974-2.491,2.467-2.824,2.754-2.824.369,0,.822.332,2.754,1.951.864.748,1.191,1.121,1.191,1.412s-.123.415-.534.415h-7.071v16.9Z" transform="translate(-19.948 -3.632)" fill="#30312d"/>
    <g id="グループ_13390" data-name="グループ 13390" transform="translate(-88.785 -154.328)">
      <path id="パス_19397" data-name="パス 19397" d="M1.66,38.42a3.594,3.594,0,0,1-.375-2.127c.293-.28.641-.57,1.009-.877a15.426,15.426,0,0,0,2.894-3c1.068-1.456,2.7-2.134,5.124-2.134.64,0,1.257.044,1.8.082.457.032.867.06,1.208.06a2.776,2.776,0,0,0,.891-.112,22.18,22.18,0,0,0,2.58-1.333c1.8-1.008,4.527-2.53,5.5-2.53,2.326.772,6.147,2.248,6.829,2.945a1.337,1.337,0,0,0,.96.454,1.85,1.85,0,0,0,1.23-.651c.19-.176.428-.4.563-.4a4.716,4.716,0,0,0,2.305-1.282,6.314,6.314,0,0,1,1.577-1.031h0c.155,0,.435-.016.8-.04.639-.04,1.514-.1,2.417-.1,2.647,0,3.171.488,3.269.638,1.961,3.006,3,3.354,3.6,3.354h.35a7.955,7.955,0,0,0,3.795-.833,4.68,4.68,0,0,1,2-.4,3.274,3.274,0,0,1,2.672.964c.985,1.511,3.984,3.726,5.6,4.8,2.091,1.385,2.074,2.669,2.064,3.358a.984.984,0,0,1-.017.188c-.049,0-.11,0-.142,0H1.66Z" transform="translate(88.597 154.335)" fill="#30312d"/>
      <path id="パス_19398" data-name="パス 19398" d="M29.634,45.733c2.639,2.343,4.277,6.829,2.026,10.036-.633,1-1.475,1.633-1.511,2.745a9.725,9.725,0,0,0,.617,3.519,6.843,6.843,0,0,1-.279,4.531c-.337-.913-.556-1.847-.894-2.631-.376-.9-1-1.312-1.44-2.244-1.072-2.008-1.45-4.771.133-6.616a8.478,8.478,0,0,0,1.542-2.416c.654-2.242.1-4.384-.193-6.922h0Z" transform="translate(83.74 149.553)" fill="#30312d"/>
      <path id="パス_19399" data-name="パス 19399" d="M38.926,45.733c2.64,2.343,4.277,6.829,2.026,10.036-.633,1-1.475,1.633-1.511,2.745a9.725,9.725,0,0,0,.617,3.519,6.843,6.843,0,0,1-.279,4.531c-.337-.913-.556-1.847-.894-2.631-.376-.9-1-1.312-1.44-2.244-1.072-2.008-1.45-4.771.133-6.616a8.478,8.478,0,0,0,1.542-2.416c.654-2.242.1-4.384-.193-6.922h0Z" transform="translate(80.729 149.553)" fill="#30312d"/>
      <path id="パス_19400" data-name="パス 19400" d="M48.014,45.733c2.518,1.912,4.509,5.509,3.053,8.672a9.171,9.171,0,0,1-1.977,2.623c-.512.559-.716.731-.806,1.412a7.567,7.567,0,0,0,.827,3.422c.807,1.445.45,3.266-.025,4.7a25.746,25.746,0,0,0-.952-2.666,3.139,3.139,0,0,0-.68-.9,7.475,7.475,0,0,1-1.7-2.748,4.758,4.758,0,0,1,1.063-5.379,6.5,6.5,0,0,0,1.981-2.694c.456-2.073-.233-4.09-.78-6.443h0Z" transform="translate(78.2 149.553)" fill="#30312d"/>
      <ellipse id="楕円形_13" data-name="楕円形 13" cx="31.021" cy="30.5" rx="31.021" ry="30.5" transform="translate(89.276 161)" fill="none" stroke="#30312d" stroke-linecap="round" stroke-miterlimit="10" stroke-width="2.5"/>
    </g>
  </g>
</svg>
