<svg xmlns="http://www.w3.org/2000/svg" width="50.114" height="48" viewBox="0 0 50.114 48">
  <g id="グループ_13416" data-name="グループ 13416" transform="translate(15296.479 6742)">
    <path id="パス_19521" data-name="パス 19521" d="M1.562,35.711a2.8,2.8,0,0,1-.289-1.649c.226-.217.494-.442.778-.68a11.929,11.929,0,0,0,2.23-2.328A4.465,4.465,0,0,1,8.231,29.4c.493,0,.969.034,1.389.063.352.025.668.047.931.047a2.127,2.127,0,0,0,.687-.087,17.053,17.053,0,0,0,1.989-1.034c1.389-.781,3.489-1.962,4.235-1.962,1.792.6,4.737,1.743,5.263,2.284a1.028,1.028,0,0,0,.74.352,1.423,1.423,0,0,0,.948-.5c.147-.136.329-.306.434-.306a3.628,3.628,0,0,0,1.777-.995,4.863,4.863,0,0,1,1.215-.8h0c.119,0,.336-.013.616-.031.492-.031,1.167-.074,1.862-.074,2.04,0,2.444.379,2.52.495,1.512,2.331,2.308,2.6,2.776,2.6h.27a6.1,6.1,0,0,0,2.925-.646,3.588,3.588,0,0,1,1.54-.309,2.515,2.515,0,0,1,2.059.747,18.878,18.878,0,0,0,4.317,3.72c1.612,1.074,1.6,2.07,1.591,2.6a.767.767,0,0,1-.013.146c-.038,0-.085,0-.11,0H1.562Z" transform="translate(-15296.245 -6752.61)" fill="#30312d"/>
    <path id="パス_19522" data-name="パス 19522" d="M29.093,45.733c2.047,1.817,3.317,5.3,1.571,7.783-.491.776-1.144,1.267-1.172,2.129a7.542,7.542,0,0,0,.479,2.729,5.307,5.307,0,0,1-.216,3.514c-.261-.708-.431-1.432-.693-2.04-.292-.695-.774-1.018-1.117-1.741-.831-1.557-1.124-3.7.1-5.131a6.575,6.575,0,0,0,1.2-1.873c.507-1.739.077-3.4-.15-5.368h0Z" transform="translate(-15306.174 -6761.451)" fill="#30312d"/>
    <path id="パス_19523" data-name="パス 19523" d="M38.385,45.733c2.047,1.817,3.317,5.3,1.571,7.783-.491.776-1.144,1.267-1.172,2.129a7.542,7.542,0,0,0,.479,2.729,5.307,5.307,0,0,1-.216,3.514c-.261-.708-.431-1.432-.693-2.04-.292-.695-.774-1.018-1.117-1.741-.831-1.557-1.124-3.7.1-5.131a6.575,6.575,0,0,0,1.2-1.873c.507-1.739.077-3.4-.15-5.368h0Z" transform="translate(-15310.34 -6761.451)" fill="#30312d"/>
    <path id="パス_19524" data-name="パス 19524" d="M47.413,45.733c1.953,1.483,3.5,4.272,2.367,6.726a7.112,7.112,0,0,1-1.534,2.034c-.4.434-.555.567-.625,1.1a5.868,5.868,0,0,0,.641,2.654,4.642,4.642,0,0,1-.019,3.645,19.967,19.967,0,0,0-.738-2.068,2.435,2.435,0,0,0-.527-.7,5.8,5.8,0,0,1-1.322-2.131,3.69,3.69,0,0,1,.824-4.171,5.037,5.037,0,0,0,1.537-2.09c.354-1.608-.181-3.172-.6-5h0Z" transform="translate(-15313.925 -6761.451)" fill="#30312d"/>
    <ellipse id="楕円形_17" data-name="楕円形 17" cx="24.057" cy="23" rx="24.057" ry="23" transform="translate(-15295.479 -6741)" fill="none" stroke="#30312d" stroke-miterlimit="10" stroke-width="2"/>
  </g>
</svg>
