<svg xmlns="http://www.w3.org/2000/svg" width="14" height="14" viewBox="0 0 14 14">
  <g id="ico_clock" transform="translate(-0.005)">
    <path id="パス_1584" data-name="パス 1584" d="M176.768,160.9l1.861,1.436.026.015.012.006a.426.426,0,0,0,.516-.114l.012-.012,2.281-2.7a.31.31,0,1,0-.458-.407l-2.132,2.277-1.646-1.146a.4.4,0,0,0-.472.644Z" transform="translate(-171.925 -154.718)" fill="#4b4b4b"/>
    <path id="パス_1585" data-name="パス 1585" d="M61.038,246.05a2.748,2.748,0,0,1,.013-.294H59.882c-.007.1-.009.2-.009.294s0,.2.009.294H61.05A2.755,2.755,0,0,1,61.038,246.05Z" transform="translate(-58.15 -239.05)" fill="#4b4b4b"/>
    <path id="パス_1586" data-name="パス 1586" d="M151.265,83.284c.11-.07.223-.136.338-.194l.045-.022-.582-1.011a4.507,4.507,0,0,0-.425.244l.582,1.011Z" transform="translate(-146.531 -79.824)" fill="#4b4b4b"/>
    <path id="パス_1587" data-name="パス 1587" d="M82.071,151.06l1.011.582.245-.425-1.012-.582A4.517,4.517,0,0,0,82.071,151.06Z" transform="translate(-79.832 -146.531)" fill="#4b4b4b"/>
    <path id="パス_1588" data-name="パス 1588" d="M386.352,326.25c-.061.115-.125.227-.2.336l-.029.043,1.012.582c.089-.138.171-.277.246-.423l-1.009-.584Z" transform="translate(-375.612 -317.317)" fill="#4b4b4b"/>
    <path id="パス_1589" data-name="パス 1589" d="M83.1,326.249l-.023-.044-1.009.582a4.186,4.186,0,0,0,.244.425l1.012-.582-.029-.043A3.674,3.674,0,0,1,83.1,326.249Z" transform="translate(-79.832 -317.318)" fill="#4b4b4b"/>
    <path id="パス_1590" data-name="パス 1590" d="M151.265,386.141l-.043-.029-.582,1.012a4.62,4.62,0,0,0,.425.247l.582-1.011-.045-.022A3.722,3.722,0,0,1,151.265,386.141Z" transform="translate(-146.531 -375.603)" fill="#4b4b4b"/>
    <path id="パス_1591" data-name="パス 1591" d="M326.214,83.067l.425.247.582-1.011a4.522,4.522,0,0,0-.423-.244Z" transform="translate(-317.322 -79.825)" fill="#4b4b4b"/>
    <path id="パス_1592" data-name="パス 1592" d="M245.771,410.71v1.167c.1.009.2.01.294.01s.2,0,.294-.01V410.7h-.587Z" transform="translate(-239.06 -399.606)" fill="#4b4b4b"/>
    <path id="パス_1593" data-name="パス 1593" d="M246.358,61.045V59.879c-.1-.009-.2-.011-.294-.011s-.2,0-.294.011v1.179h.587Z" transform="translate(-239.06 -58.15)" fill="#4b4b4b"/>
    <path id="パス_1594" data-name="パス 1594" d="M326.214,386.36l.585,1.009c.145-.076.285-.157.423-.247l-.582-1.012Z" transform="translate(-317.322 -375.602)" fill="#4b4b4b"/>
    <path id="パス_1595" data-name="パス 1595" d="M387.384,151.06a4.577,4.577,0,0,0-.246-.425l-1.012.582.247.425Z" transform="translate(-375.612 -146.531)" fill="#4b4b4b"/>
    <path id="パス_1596" data-name="パス 1596" d="M411.893,245.757h-1.18v.588h1.18c.007-.1.009-.2.009-.294S411.9,245.854,411.893,245.757Z" transform="translate(-399.615 -239.051)" fill="#4b4b4b"/>
    <path id="パス_1597" data-name="パス 1597" d="M7,0a7,7,0,1,0,7,7A7,7,0,0,0,7,0ZM7,13.1a6.1,6.1,0,1,1,4.311-1.786A6.075,6.075,0,0,1,7,13.1Z" transform="translate(0)" fill="#4b4b4b"/>
  </g>
</svg>
