<svg xmlns="http://www.w3.org/2000/svg" width="14" height="10" viewBox="0 0 14 10">
  <path id="Icon_ionic-md-people" data-name="Icon ionic-md-people" d="M11.8,12.042A2.008,2.008,0,0,0,13.7,9.958,2.008,2.008,0,0,0,11.8,7.875,2.008,2.008,0,0,0,9.886,9.958,2.008,2.008,0,0,0,11.8,12.042Zm-5.091,0A2.008,2.008,0,0,0,8.614,9.958,2.008,2.008,0,0,0,6.7,7.875,2.008,2.008,0,0,0,4.8,9.958,2.008,2.008,0,0,0,6.7,12.042Zm0,1.528c-1.5,0-4.455.8-4.455,2.431v1.875h9V16C11.25,14.368,8.2,13.569,6.7,13.569Zm5.091.382a3.061,3.061,0,0,0-.545.035,2.127,2.127,0,0,1,1,2.014v1.875h4V16C16.25,14.368,13.291,13.951,11.8,13.951Z" transform="translate(-2.25 -7.875)" fill="#30312d"/>
</svg>
