<svg id="ico_calendar" xmlns="http://www.w3.org/2000/svg" width="13.998" height="14" viewBox="0 0 13.998 14">
  <rect id="長方形_1163" data-name="長方形 1163" width="2.876" height="2.192" transform="translate(2.237 4.413)" fill="#4b4b4b"/>
  <rect id="長方形_1164" data-name="長方形 1164" width="2.877" height="2.192" transform="translate(5.561 4.413)" fill="#4b4b4b"/>
  <rect id="長方形_1165" data-name="長方形 1165" width="2.876" height="2.192" transform="translate(8.885 4.413)" fill="#4b4b4b"/>
  <rect id="長方形_1166" data-name="長方形 1166" width="2.876" height="2.192" transform="translate(2.237 7.371)" fill="#4b4b4b"/>
  <rect id="長方形_1167" data-name="長方形 1167" width="2.877" height="2.192" transform="translate(5.561 7.371)" fill="#4b4b4b"/>
  <rect id="長方形_1168" data-name="長方形 1168" width="2.876" height="2.192" transform="translate(8.885 7.371)" fill="#4b4b4b"/>
  <rect id="長方形_1169" data-name="長方形 1169" width="2.876" height="2.192" transform="translate(2.237 10.165)" fill="#4b4b4b"/>
  <rect id="長方形_1170" data-name="長方形 1170" width="2.877" height="2.192" transform="translate(5.561 10.165)" fill="#4b4b4b"/>
  <rect id="長方形_1171" data-name="長方形 1171" width="2.876" height="2.192" transform="translate(8.885 10.165)" fill="#4b4b4b"/>
  <path id="パス_1563" data-name="パス 1563" d="M102.035,2.671a.562.562,0,0,0,.6-.514V.514a.606.606,0,0,0-1.2,0V2.158A.562.562,0,0,0,102.035,2.671Z" transform="translate(-99.016)" fill="#4b4b4b"/>
  <path id="パス_1564" data-name="パス 1564" d="M239.423,2.671a.562.562,0,0,0,.6-.514V.514a.606.606,0,0,0-1.2,0V2.158A.561.561,0,0,0,239.423,2.671Z" transform="translate(-232.424)" fill="#4b4b4b"/>
  <path id="パス_1565" data-name="パス 1565" d="M29.811,44.9v.738a.911.911,0,0,1-1.817,0V44.9H25.773v.738a.912.912,0,0,1-1.817,0V44.9H21.736v.738a.912.912,0,0,1-1.817,0V44.9H17.866V57.556h14V44.9Zm1.245,5.708v6.2H18.674V47.133H31.056Z" transform="translate(-17.866 -43.556)" fill="#4b4b4b"/>
  <path id="パス_1566" data-name="パス 1566" d="M376.8,2.671a.561.561,0,0,0,.6-.514V.514a.606.606,0,0,0-1.2,0V2.158A.561.561,0,0,0,376.8,2.671Z" transform="translate(-365.824)" fill="#4b4b4b"/>
</svg>
