<svg xmlns="http://www.w3.org/2000/svg" width="14" height="10" viewBox="0 0 14 10">
  <path id="Icon_awesome-chart-area" data-name="Icon awesome-chart-area" d="M13.672,12.833a.322.322,0,0,1,.328.313v1.042a.322.322,0,0,1-.328.313H.328A.322.322,0,0,1,0,14.188V4.813A.322.322,0,0,1,.328,4.5H1.422a.322.322,0,0,1,.328.313v8.021ZM10.191,6.987,7.875,8.458,5.543,5.5A.338.338,0,0,0,5,5.523L2.625,9.292V12h10.5L10.667,7.109A.337.337,0,0,0,10.191,6.987Z" transform="translate(0 -4.5)" fill="#30312d"/>
</svg>
