<svg id="ico_cook" xmlns="http://www.w3.org/2000/svg" width="14" height="14" viewBox="0 0 14 14">
  <path id="パス_1598" data-name="パス 1598" d="M1.393,44.76c-.627-.718-1.775-.039-1.261,1.094a23.419,23.419,0,0,0,1.925,3.932c.923,1.33,1.906,1.188,2.9,1.51l.713.368,4.88,5.6.987-.856.005,0L5.2,49.131Z" transform="translate(-0.003 -43.262)" fill="#4b4b4b"/>
  <path id="パス_1599" data-name="パス 1599" d="M256.024,3.268l-1.7,1.959a.3.3,0,0,1-.424.029l-.061-.052a.3.3,0,0,1-.029-.423l1.711-1.968a.51.51,0,0,0-.061-.789.51.51,0,0,0-.79.05l-1.711,1.968a.3.3,0,0,1-.423.029l-.06-.052a.3.3,0,0,1-.03-.423l1.7-1.959a.546.546,0,1,0-.829-.71L251.691,2.8c-.907,1.036-.893,1.521-.765,2.2a1.481,1.481,0,0,1-.307,1.59l-.831.956.872,1,.952-1.1a1.482,1.482,0,0,1,1.532-.525c.691.033,1.174-.021,2.073-1.063l1.626-1.871A.546.546,0,1,0,256.024,3.268Z" transform="translate(-242.995 -0.717)" fill="#4b4b4b"/>
  <path id="パス_1600" data-name="パス 1600" d="M52.858,322.692,49.1,327.013l.993.863,3.679-4.231-.757-.871Z" transform="translate(-47.752 -313.876)" fill="#4b4b4b"/>
</svg>
