<svg height="567.04" viewBox="0 0 531.321 567.04" width="531.321" xmlns="http://www.w3.org/2000/svg"><g fill="none"><path d="m162.927 337.569 5.971-7.961-.579-3.568 6.146-12.459 5.059-2.35.763-23.646.719-2.166-1.043-4.866s-2-3.34-2-3.437.132-6.348.132-6.348-1.806-1.815-1.9-1.824-.57-7.856-.57-7.856l-5.331-1.026-3.174-4.489-3.647-.105-4.173 1.859-9.539 1.3-1.753 2s-7.242-.3-7.137 6.006l.105 5.1-2.578 5.357-.552 3.481-4.708 2.928-1.894 3.358-10.331-1.657a18.536 18.536 0 0 1 -16.632-1.552l-7.224-6.2s-9.241-4.34-2.9-10.758l2.841-4.147-.666-1.482 2.358-3.595-6.856-.587-12.362 6.286-4.91 23.962-6.3 4.033 2.928 6.286-3.367 9.215 2.911 8.873-3.04 19.186 2.551 7.4-2.6 2.2.956 4.349-.377 3.411 4.656-.526 6.576-7.908 9.206 4.48-1.14 7.742 4.8-1.824 7.452-13.244 13.7-11.012 15.133.07 26.083 9.46 5.865.167 2.341-1.894z" stroke="#c4c4c4" stroke-linecap="round" stroke-linejoin="round" transform="translate(-8.267 -31.424)"/><path d="m46.037 521.547-1.087 5.053-2.192-1.955-.175 2.858-2.35-.43-8.259-10.188-1.157-4.454-3.095-.509-.763 3.183-5.033-.535-1.946 2.35-4.27-.289-3.288-3.586 1.622-7.742 1.762-10.074 2.227-2.2-3.849-19.21-2.928-5.681-2.727 2.7-3.429-1.747-.2-10.091-3.393-.175-1.017-5.252 1.824-4.573 3.174-10.653 7.4-2.928 14.37 4.5.754-3.314 31.028-4.3 5.567-7.356-1.087-4.428-11-14.808.4-7.014 4.235-3.367-1.745-2.032 3.174-6.549-.228-4.533 8.268-11.2-.158-2.849-3.612-.815-2.876-4.787 4.656-.526 6.576-7.908 9.206 4.48-1.14 7.742 4.8-1.824 7.444-13.248 13.7-11.012 15.133.07 26.083 9.46 5.865.167-.044 3.332 6.777 4.208-1.14 7.005-7.8 11.407 2.569 3.332-4.848 11.056 6.242 5.567-16.715 25.025-4.787-2.236-10.381 10.653-.018 4.059 10.311 4.84 11.731 17.4-1.867 4.419 4.366 14.414 8.128-2.174 1.806 9.609-3.709 4.41-4.507 17.745.228 4.147-4.813.07-8.741 7.242-3.042-.009c-.21 0-8.68-6.111-8.68-6.111l-6.067-2.455-3.656 2.613-8.312 2.192-2.621-3.262s-3.639-2.446-3.428-2.446-5.059-.43-5.059-.43l-5.638-9.136-6.26-4.691.219-3.849-3.042.395-.622 3.235s-4.059 2.4-3.656 2.411-9.732 2.586-9.732 2.586l-4.261.587-1.412-1.428-3.02-.42-9.811 17.588s-.228 6.479-.026 6.479-.815 1.824-.815 1.824" stroke="#c4c4c4" stroke-linecap="round" stroke-linejoin="round" transform="translate(.01 -41.876)"/><path d="m52.369 541.865s1.017-1.824.815-1.824.026-6.479.026-6.479l9.811-17.588 3.025.421 1.412 1.429 4.261-.587s10.135-2.586 9.732-2.586 3.656-2.411 3.656-2.411l.622-3.24 3.042-.395-.219 3.849 6.26 4.691 5.638 9.136s5.261.43 5.059.43 3.428 2.446 3.428 2.446l2.621 3.262 8.312-2.192 3.656-2.613 6.067 2.455s8.487 6.111 8.68 6.111l3.042.009 8.741-7.242 4.813-.07-1.762 4.322 3.507 4.3-.359 3.525 8.3-1.824 5.418-3.1 8.768 3.84 7.575-1.1-3.235 4.024 1.929 2.1-.018 3.586-3.919 7.146-9.6 11-.184 6.576-4.8 3.56-3.63 9.092-4.033 1.035-.614 3.726-7.321 1.315-5.091 4.18-1.526 8.075 2.5 8.215-1.157 2.99-4.094 1.3c-8.513.421-35.009 11.1-35.009 11.1s-6.532-.184-6.681-.184-7.759 1.49-7.759 1.49c.307-1.526 4.919-11.222 4.919-11.38a18.644 18.644 0 0 1 2.885.009 36.811 36.811 0 0 0 1.806 3.349c.149 0 2.578.78 2.735.771a4.905 4.905 0 0 0 .614-1.973 8.228 8.228 0 0 1 -.754-1.666s5.024.333 5.024.167c0-.14 5.033-3.77 5.033-3.77l.754 1.368s1.692-2.42 1.832-2.578c.158-.158 3.814-1.806 3.814-1.806l-.754-1.981 2.893-1.964s1.219.614 1.219.465-.184 6.234-.184 6.234l1.683-.6.026-4.41s3.191-.14 3.349-.132 0-1.526 0-1.526l-3.034-.772.482-4.568 1.219-1.517c-2.253-6.54-7.128-3.98-7.128-3.98l-2.578-.614c-6.979-1.85-6.716 5.892-6.716 5.892h-1.675a10.892 10.892 0 0 0 -1.052-1.832l-11.854-.351c-5.173 1.657-5.611-.64-5.611-.64-3.007-8.215-6.216-5.953-6.216-5.953l.175-3.945 1.534-1.973.772-2.578-.149-2.586-1.21.14-1.236 3.34-2.3 3.034c-4.147 9.408-1.28 14.431-1.28 14.431 7.715 6.12 5.278 8.846 5.278 8.846-7.6.885-15.457-8.434-15.457-8.434 7.049-13.642-1.736-19.306-1.894-19.306s.815-11.547.815-11.547c2.139-2.727 5.076-11.836 5.076-11.836l2.288-2.271-.447-2.28-5.936 2.394-5.813 7.119-3.8-2.06-.061-6.269-7.487-6.751-2.464-3.525 1.166-5.471z" stroke="#c4c4c4" stroke-linecap="round" stroke-linejoin="round" transform="translate(-6.242 -62.623)"/><path d="m177.722 328.617-.579-3.568 6.146-12.459 5.059-2.35.763-23.646.719-2.166 3.446-1.946 9.653-11.512-1.447-7.645 18.692 2.551-2.262 9.828 7.11 4.226 2.236-4.919 22.655-3.34 2.753-9.1 5.173-.465 4.717-11.056 15.028-3.621 6.874 5.19 1.9 13.3 10.556 5.716.71 5.909-3.481 5.646 2.946 2.227-.018 3.937-8.136 3.156-4.436 1.71-6.409 1.192.237 4.191-6.164 3.156-6.69 9.828-1.762 10.074.2 9.592 10.81 4.235 7.391-2.183 8.855 1.771 2.148 15.264-6.418 3.165 3.647 9.863-.263 4.919-5.673 2.192 5.883 4.945 1.219 3.209-1.28 10.819 8.583 5.944.728 3.7 2.56 4.261-1.122 2.937-4.436 1.149-1.736 3.937-7.873.7-.219-5.673-11.328-1.28-2.718 3.437-4.173-2.727 1.254-3.437-10.065-4.971-10.162 15.711-4.656-2.981-6.462 13.265 5.147 4.7-6.176 5.876 4.138 10.6-1.718 3.06-1.368 6.795-1.911-1.341-3.13 3.849-.333 6.953 2.209 2.227s-.465 4.147-.465 4.3-4.598 1.457-4.598 1.457l3.674 7.864-1.359 4.138-29.38 17.035-.167 3.253-5.787 1.491-7.575 1.1-8.768-3.84-5.418 3.1-8.3 1.824.359-3.525-3.507-4.3 1.762-4.322-.228-4.147 4.507-17.746 3.709-4.41-1.806-9.609-8.128 2.174-4.366-14.414 1.868-4.419-11.731-17.4-10.311-4.84.018-4.059 10.381-10.652 4.787 2.236 16.72-25.023-6.242-5.567 4.848-11.056-2.569-3.332 7.8-11.407 1.14-7.005-6.777-4.208.044-3.332 2.341-1.894 5.971-7.961z" stroke="#c4c4c4" stroke-linecap="round" stroke-linejoin="round" transform="translate(-17.092 -30.434)"/><path d="m234.67 406.707 3.112 3.612 3.6-2.534-.219-1.631-2.078-1.175-4.419 1.727z" stroke="#c4c4c4" stroke-linecap="round" stroke-linejoin="round" transform="translate(-28.852 -49.851)"/><path d="m159.869 608.127-2.5-8.215 1.526-8.075 5.094-4.156 7.321-1.315.614-3.726 4.033-1.035 3.63-9.092 4.8-3.56.184-6.576 9.6-11 3.919-7.146.018-3.586-1.929-2.1 3.235-4.024 5.787-1.49.167-3.253 29.38-17.035 1.352-4.143-3.674-7.864s4.594-1.306 4.594-1.455.465-4.3.465-4.3l-2.209-2.227.333-6.953 3.13-3.849 1.911 1.341 1.368-6.795 1.718-3.06 2.437 4.682 2.411 10.346.21 8.618-1.736 2.709 1.71 2.464-.018 4.428-2.735 5.646 1.447 5.918 4.419 3.218 3.7-2.937 5.395 3.47 3.875 13.791s4.419 3.963 4.656 3.963 5.9.772 5.9.772l4.945-4.664-2.152-15.516 1.491-4.664-.21-9.1 6.418-4.393 3.665 6.172s6.891.026 6.883.272.473 5.418.473 5.418l22.655-3.34 4.445-2.437 9.837.044 1.166 13.546-2.972 4.419-.772 6.637 5.383 6.663.964 3.937 9.1 2.016-2.043 4.287-2.674 8.408 2.893 1.324.5 5.278-1.841 1.832 2.876 2.92 4.2 2.657v3.945l-1.359 6.847-6.348 3.919c-.85 13.695-.43 4.884-.43 4.884l-1.867 4.051-2.043 3.314-1.657-.193-3.56 2.928-2.131 5.778.754 7.119-2.9-.009c-.272 0-1.043-2.639-1.043-2.639a40.363 40.363 0 0 0 -3.437 2.613c.272 0-1.324 3.148-1.052 3.148s-8.452 3.91-8.2 4.182c.272.272-8.671-5.313-8.671-5.313a20.34 20.34 0 0 1 2.113-2.99c.263 0-2.1-3.323-2.1-3.323l-3.148-1.078s.281-4.48.289-4.743a55.728 55.728 0 0 1 3.963-3.937c-4.717-4.5-.228-1.876-.228-1.876h-.929l-.359-2.411-.9-2.963.57-3.5s1.657-4.007 1.657-4.27-2.376-.342-2.376-.342.289-3.884.289-3.621a41.17 41.17 0 0 0 3.428-3.375l-2.062-7.417 2.332-9.381 11.81 1.043 1.245-3.437-5.392-6.172-6.137-3.963-11.915-2.885-6.076 3.139c-15.01-.868-11.617 7.584-11.617 7.584l-1.587.263c-7.672 4.7-1.894 10.53-1.894 10.53-2.131 4.463-10.565 4.691-10.565 4.691l-6.6 4.182-5.05 9.206 1.569 4.208-4.252 6.313-.544 2.893c-20.349 13.353-7.75 23.944-7.75 23.944-2.639.78-7.628-2.411-7.628-2.411-22.866-12.222-41.865-4.919-41.865-4.919-6.576-3.2-27.907-4.349-27.907-4.349l-8.426-.324 1.157-2.99z" stroke="#c4c4c4" stroke-linecap="round" stroke-linejoin="round" transform="translate(-19.325 -58.289)"/><path d="m165.536 620.543 4.41 4.454 4.7.684.554-2.681 1.078-1.868 1.07-.666.158-2.692-1.21-.544-2.7 2.411-.281 3.086-2.017.114.693-4.691 2.569-2.937 2.692-2.551-.263-1.473-2.017-.14-1.359 2.543-.807-.544-2.008.123-1.359 2.148s-1.6 0-1.6-.14a5.232 5.232 0 0 0 -.14-.666l2.017-1.07-.254-2.148-1.745-.544-1.341 1.333-.149 2.551-2.42 1.859 1.718 4.042z" stroke="#c4c4c4" stroke-linecap="round" stroke-linejoin="round" transform="translate(-20.118 -75.212)"/><path d="m184.052 222.441s30.055-9.206 37.727-17.044l3.928-.473 8.662-9.311s4.419 3.463 15.983.815c0 0 21.244-17.377 21.5-19.6l1-2.209 12.327-6.085s8.18-12.275 8.68-14.721l-.237-1.981 2.464-.482 3.717-5.638 5.182-3.919c-.228-.491 6.155-7.268 8.461-21.857l3.989-11.31s6.435-8.829 8.408-8.82l22.953-14.9 5.664-.956s18.955-2.621 34.342-31.835l-.482-2.218 1.745-3.928 1.578-21.893s1.508-7.128 4.962-10.311l2.253-7.619 3.716-5.646 5.646 3.226 5.4 1.99 8.846 2.508-.807 14.765 4.656 4.936 7.864.035 9.066 10.381-4.962 7.61-8.883 5.366-8.355-2.008-3.235 6.146.666 15.746-3.209 2.692-2.523 14.007-1.744 3.195 3.419 6.663 6.137 2.49 3.428 3.954-9.4 9.8-5.453 10.547-6.909 4.156-.281 7.137 4.13 10.6-2.227 3.682-15.983-2.288-3.726 8.6-20.683 1.622-1.508 6.392 2.946 1.49-.035 7.137-7.455 14.987 3.668 4.936 2.718-1.21 4.147 6.409-2.99 9.837 2.665 7.882-1.78 12.792-7.365-2.5-.228-4.182-9.074-8.9-1.5 6.146-4.445 4.156-8.864 1.184 1.175 13.055-3.437-1.49-2.972 2.7.473 6.392-11.582 2.411-.526 7.391-4.936 2.674-6.874-2.245-.754 3.209-2.709.228.02-3.939-2.946-2.227 3.481-5.646-.71-5.909-10.555-5.718-1.9-13.3-6.874-5.19-15.028 3.621-4.717 11.056-5.173.465-2.753 9.1-22.655 3.348-2.236 4.919-7.11-4.226 2.262-9.828-18.696-2.555 1.447 7.645-9.653 11.512-3.446 1.946-1.043-4.866s-2-3.34-2-3.437.132-6.348.132-6.348-1.806-1.815-1.9-1.824-.57-7.856-.57-7.856l-5.331-1.026-3.174-4.489 2.955-1.718z" stroke="#c4c4c4" stroke-linecap="round" stroke-linejoin="round" transform="translate(-22.247)"/><path d="m251.159 456.219 6.181-5.874-5.147-4.7 6.462-13.265 4.656 2.981 10.162-15.711 10.065 4.971-1.254 3.437 4.173 2.727 2.718-3.437 11.328 1.28.219 5.673 7.873-.7 1.736-3.937 4.436-1.149 5.655 1.938 2.437 4.2 5.655.763 5.146 3.963 5.6-2.069 2.2 3.148 4.375 11.643 4.77 5.743 7.181 2.437 2.937 2.963-.614 6.172.6 6.111-2.034 7.374-8.89 6.821-8.452 2.814-3.183 3.56-2.586 5.55-4.445 2.437-22.655 3.34s-.464-5.165-.464-5.423-6.883-.272-6.883-.272l-3.665-6.172-6.418 4.393.21 9.1-1.49 4.664 2.148 15.518-4.945 4.664s-5.655-.763-5.9-.772-4.656-3.963-4.656-3.963l-3.875-13.791-5.392-3.472-3.7 2.937-4.419-3.218-1.447-5.918 2.735-5.646.018-4.428-1.71-2.464 1.736-2.709-.21-8.618-2.411-10.346-2.437-4.682-4.138-10.6z" stroke="#c4c4c4" stroke-linecap="round" stroke-linejoin="round" transform="translate(-30.883 -51.659)"/><path d="m377.057 470.491 5.532 2.481 2.683 6.418 11.556.053 6.637 2.245 9.048 11.608 1.771-11.556-4.419-3.709 2.227-1.964 2.455 1.981 4.2-4.4 10.565 3.98 9.548 10.626 10.083 1.946.228 3.27-5.918 3.165-2.963 2.692-1.71-2.955-.9 3.375c-8.241-3.025-2.788 5.024-1.587 3.49l-1.017 4.673c-4.515-2.543-4.682 4.638-2.227 3.674l.465 5.673s-2.955 1.219-2.709 1.464 2.946 1.99 2.946 1.99l-1.973.964v1.973l3.928 1 2.437 2.718 4.428.763 1.473 1.49-4.454 6.374c-8.128.21-5.936 7.1-5.936 7.1l2.709 1a16.4 16.4 0 0 0 -.745 1.973c0 .254-7.382.21-7.382.21l-.228-2.709 1.482-1.719-.237-2.709-1.71-.745v-1.973l2.218.254v-2.7l-2.7-.754-3.91-5.436.263-3.928-3.428-2.718s-2.218 1.455-1.973 1.455-4.428-.754-4.428-.754l-6.392-1.99c-25.11.631-33.018 11.906-33.273 11.9-.237 0 .2 12.055.2 12.055l-3.7 1.219-9.1-2.017-.964-3.937-5.383-6.663.772-6.637 2.972-4.419-1.166-13.546-9.837-.044 2.586-5.55 3.183-3.56 8.452-2.814 8.89-6.821 2.034-7.373-.6-6.111.614-6.172 4.428 1.122z" stroke="#c4c4c4" stroke-linecap="round" stroke-linejoin="round" transform="translate(-42.759 -57.786)"/><path d="m354.958 434.083 2.692 1 3.463-2.683 9.329 5.208 5.173-.228 5.638 3.226 11.319 1.035 3.665 5.19 8.338 5.445 17-5.331-.254 4.919 5.173-2.683 3.191 1.245 3.463-3.674 11.547 1.771 1.254-3.682 9.828 2.253 5.471 2.429-.938 3.1 2.315 2.394-.675 2.157 2.841 3.893-1.3 2.481-2.674.088-.026 4.612-1.85 2.113-6.479 3.3-3.709 3.674.473 3.191.228 5.112-10.083-1.955-9.548-10.626-10.565-3.972-4.2 4.4-2.458-1.985-2.218 1.964 4.41 3.709-1.771 11.556-9.048-11.608-6.646-2.244-11.556-.044-2.683-6.418-5.524-2.481-4.428-1.122-2.937-2.972-7.181-2.437-4.778-5.734-4.375-11.643-2.2-3.156 3.288-4.787z" stroke="#c4c4c4" stroke-linecap="round" stroke-linejoin="round" transform="translate(-43.272 -53.231)"/><path d="m323.416 422.482 1.122-2.937-2.56-4.261-.728-3.7 5.69-7.11 6.392.771 5.2-6.137 6.655-2.911 13.563-4.62 2.963-3.928-.228-3.937 8.671-13 22.12 6.26 3.954-3.437 11.52 10.39 15.755-3.121 2.455 2.464 3.937-1.447 1.894-2.821 2.867 2.657.859 2.937-1 .447.175 2.63 4.138 6.935.447 4.007 5.129.421 4.524 7.286-.131 4.717 2.043 5.076 4.585 5.892 3.647 7.724-1.867 3.551.289 8.636-5.471-2.429-9.828-2.253-1.254 3.682-11.543-1.767-3.463 3.674-3.191-1.245-5.173 2.683.254-4.919-17 5.331-8.338-5.445-3.665-5.19-11.324-1.038-5.638-3.227-5.173.228-9.329-5.208-3.46 2.687-2.692-1-3.288 4.787-5.6 2.069-5.155-3.963-5.655-.763-2.437-4.2-5.655-1.929z" stroke="#c4c4c4" stroke-linecap="round" stroke-linejoin="round" transform="translate(-39.523 -45.627)"/><path d="m391.191 272.406 6.374 3.726-6.19 8.592 1.955 4.682-5.471 12.765 7.1 5.69 9.109.035 2.192 3.954-6.681 9.565-1.762 7.864-5.708 11.047 6.374 6.435-.018 2.946 7.347 6.19 17.719.324 3.323 7.04-1.894 2.814-3.937 1.447-2.455-2.464-15.755 3.121-11.513-10.386-3.954 3.437-22.12-6.26-8.671 13 .228 3.937-2.963 3.928-13.563 4.62-6.655 2.911-5.2 6.137-6.392-.772-5.69 7.111-8.583-5.944 1.28-10.819-1.219-3.209-5.883-4.945 5.673-2.192.263-4.919-3.647-9.863 6.418-3.165-2.148-15.264-8.846-1.762-7.391 2.183-10.81-4.235-.2-9.592 1.762-10.083 6.69-9.828 6.172-3.156-.237-4.191 6.409-1.192 4.436-1.71 8.136-3.156 2.709-.228.754-3.209 6.874 2.245 4.936-2.665.526-7.391 11.582-2.411-.473-6.4 2.972-2.692 3.437 1.49-1.175-13.055 8.864-1.184 4.445-4.156 1.502-6.144 9.066 8.9.228 4.173 7.365 2.5-.254 2.7 4.182-.956 13.774 3.989-4.717 8.1z" stroke="#c4c4c4" stroke-linecap="round" stroke-linejoin="round" transform="translate(-34.589 -29.888)"/><path d="m510.279 268.481.719 5.182-.307 11.556 3.665 6.409-8.136 3.165 2.411 10.1.684 13.783-5.215 10.31-2.744 7.619-4.9-2.972-4.445 2.683-3.682-1.49-.763 4.428-10.582.43-.991 3.446-4.691 2.437-1.254 4.182-4.673-2-3.446 2.7-2.008 8.6-9.618 5.129-5.585.044-2.867-2.657-3.323-7.04-17.719-.324-7.347-6.19.018-2.946-6.38-6.435 5.708-11.047 1.762-7.865 6.681-9.565-2.192-3.954-9.109-.035-7.1-5.69 5.471-12.766-1.955-4.682 6.19-8.592-6.374-3.726 4.717-8.1 8.145-7.584 15.782-7.058 21.217-10.986 9.627-7.575 15.01-.184 15.974 5.488 6.839 10.126 6.637 2.236.675 12.8z" stroke="#c4c4c4" stroke-linecap="round" stroke-linejoin="round" transform="translate(-49.58 -28.189)"/><path d="m462.2 399.17 3.656 6.172 3.183 3.463 5.138 7.4 5.392 5.936 9.574 4.971 13.265 5.708 2.928 3.954 5.182-3.174 4.673 1.008 4.2-2.937 4.91 1.262 4.7-4.165 8.618-1.438 2.472-1.464 3.428 1.745 3.472-6.628 5.646 4.7 8.075 9.136 6.137 1.754 2.946 1.981 1.447 5.918 10.3 7.365 2.955-.728 2.7 1.552-.763 5.655-3.191-2.972-11.091 2.9-3.682-1.49s-37.217 13.608-36.156 52.246l1.71 1.982-1.771 9.828 1.473.5-3.253 10.565-2.946-.509-3.463 5.892a17.484 17.484 0 0 1 -2.209-1.727c.245 0-1.982 1.955-1.982 1.955l-4.673-.017-2.963 3.428s-13.52-4.489-15.782 6.821c0 0-14.773 2.884-14.1 15.185 0 0 .2 10.346-16.273 6.83 0 0 1.754-5.646-8.084-7.672l9.372-3.148h2.455l-.219-4.91-3.191-1.736-1.21-4.927 3.954-2.937-2.455-1.727-.491-2.455s3.709-2.2-.71-5.909c0 0-1.675-8.873 6.2-8.347 0 0-.684-12.064-9.048-13.826 0 0 5.182-3.419 4.945-3.428s.517-5.164.517-5.164 5.646 1.263 5.646 1.5a29.394 29.394 0 0 0 2.963-2.692l-2.183-5.918s16.763-6.8 18.526-16.15c0 0 7.891-2.183 2.016-9.583 0 0-6.611-7.663-6.611-7.409s-7.865-1.517-7.865-1.517-3.2.973-2.955 1.219 1.71 2.718 1.71 2.718l-3.945 2.928-3.367-2.358 1.85-2.113.026-4.612 2.683-.088 1.289-2.481-2.83-3.891.666-2.166-2.315-2.394.938-3.1-.289-8.627 1.859-3.551-3.647-7.724-4.585-5.883-2.043-5.085.131-4.708-4.533-7.286.938-3.375z" stroke="#c4c4c4" stroke-linecap="round" stroke-linejoin="round" transform="translate(-56.377 -49.135)"/><path d="m579.6 279.355-3.446.482s-7.207 15.711-7.242 23.593c0 0-16.842 26.5-10.267 40.8l-4.471 9.329-2.709.482s-4.314 28.039 28.687 75.672l3.428 4.62-2.955.728-10.3-7.365-1.447-5.918-2.946-1.981-6.137-1.754-8.075-9.136-5.646-4.7-3.472 6.628-3.432-1.735-2.472 1.464-8.619 1.436-4.7 4.165-4.91-1.263-4.2 2.937-4.669-1.009-5.185 3.17-2.928-3.954-13.265-5.708-9.574-4.971-5.392-5.936-5.138-7.4-3.183-3.463-3.656-6.172-.938 3.376-5.129-.43-.438-4.007-4.147-6.935-.167-2.63 1-.447-.868-2.937 5.585-.035 9.618-5.129 2.008-8.6 3.454-2.7 4.673 2 1.245-4.182 4.691-2.437 1-3.446 10.582-.438.763-4.428 3.682 1.49 4.445-2.683 4.91 2.972 2.744-7.61 5.217-10.319-.684-13.774-2.42-10.1 8.136-3.165-3.665-6.418.307-11.556-.719-5.173.526-8.61 4.419.517 3.428 5.427 5.155 1.5.219 6.4 11.047 5.462 7.672-8.32 6.4-1.447-2.919-7.9 2.481-2.446 4.647 5.681 18.92 5.752 1.455 4.673z" stroke="#c4c4c4" stroke-linecap="round" stroke-linejoin="round" transform="translate(-55.448 -32.382)"/><path d="m518.54 402.713 1.832 3.507 9.031 3.174 4.428-.158 3.49 3.34-2.043 3.121 6.277-.333 3.867 1.306 4.042 3.709 2.218-.544-.36-2.4-9.153-15.72-1.473-1.859-.535-3.323-2.744-4.252-6.453-1.14 2.56 4.8 4.962 3.533.728 2.586-2.043 2.569-11.433-.6-2.586-.2-1.28-2.034-3.332.912z" stroke="#c4c4c4" stroke-linecap="round" stroke-linejoin="round" transform="translate(-63.838 -48.145)"/><path d="m563.3 408.036-1.306 1.28 1.85.938-1.859 2.393 4.226 2.972.175 3.314 4.024 5.927-3.314-.386-.377 1.3 4.059 4.471.158-4.419 1.517-3.165-2.016-2.411-2.008-5.182-3.095-9.6-2.937-2.236-1.078-6.453-2.937-2.788 1.639 3.875.886 7.216 2.393 2.955z" stroke="#c4c4c4" stroke-linecap="round" stroke-linejoin="round" transform="translate(-68.749 -48.497)"/></g><path d="m8.094 23.571c-6.827-9.897-8.094-10.912-8.094-14.55a9.021 9.021 0 0 1 18.042 0c0 3.637-1.267 4.653-8.094 14.55a1.128 1.128 0 0 1 -1.854 0zm.927-10.791a3.759 3.759 0 1 0 -3.759-3.759 3.759 3.759 0 0 0 3.759 3.759z" fill="#391204" transform="translate(218.328 330.616)"/><path d="m1.492 33.724a2.208 2.208 0 0 1 -.227-1.3c.178-.171.389-.348.613-.536a9.4 9.4 0 0 0 1.757-1.833 3.517 3.517 0 0 1 3.11-1.3c.389 0 .763.027 1.094.05.277.02.526.037.733.037a1.675 1.675 0 0 0 .541-.069 13.432 13.432 0 0 0 1.566-.814 12.825 12.825 0 0 1 3.336-1.545 18.776 18.776 0 0 1 4.146 1.8.81.81 0 0 0 .583.277 1.121 1.121 0 0 0 .746-.4c.116-.107.26-.241.342-.241a2.857 2.857 0 0 0 1.4-.783 3.83 3.83 0 0 1 .957-.63c.094 0 .264-.01.485-.024.388-.024.919-.059 1.467-.059 1.607 0 1.925.3 1.985.39 1.191 1.836 1.818 2.049 2.187 2.049h.213a4.8 4.8 0 0 0 2.3-.509 2.826 2.826 0 0 1 1.213-.244 1.981 1.981 0 0 1 1.622.589 14.869 14.869 0 0 0 3.4 2.93c1.269.846 1.259 1.63 1.253 2.051a.605.605 0 0 1 -.01.115c-.03 0-.067 0-.086 0h-36.726z" fill="#743924" transform="translate(184.159 275.775)"/><path d="m23.756 26.32c1.317 0 1.645.206 1.693.242 1.265 1.946 1.988 2.2 2.478 2.2h.213a5.141 5.141 0 0 0 2.464-.547 2.5 2.5 0 0 1 1.052-.206 1.708 1.708 0 0 1 1.32.425 15.947 15.947 0 0 0 3.5 3.034c.9.6 1.062 1.128 1.089 1.508h-36.23a2.442 2.442 0 0 1 -.124-.752c.161-.152.332-.3.512-.447a9.7 9.7 0 0 0 1.817-1.9 3.151 3.151 0 0 1 2.82-1.157c.376 0 .744.026 1.069.049.274.02.533.038.758.038a1.991 1.991 0 0 0 .658-.088 12.728 12.728 0 0 0 1.625-.841 15.123 15.123 0 0 1 3.137-1.5 18.777 18.777 0 0 1 3.91 1.689 1.159 1.159 0 0 0 .841.386 1.467 1.467 0 0 0 .992-.494c.051-.047.123-.114.168-.148a3.254 3.254 0 0 0 1.549-.857 5.628 5.628 0 0 1 .787-.555c.11 0 .26-.012.456-.024.383-.024.908-.058 1.444-.058m0-.72c-.865 0-1.7.083-1.953.083-.548 0-1.807 1.413-2.355 1.413-.431 0-.719.639-1.088.639a.458.458 0 0 1 -.325-.168c-.548-.564-3.417-1.6-4.24-1.884a.509.509 0 0 0 -.164-.024c-1.049 0-4.242 2.113-5.018 2.379a1.383 1.383 0 0 1 -.425.049c-.45.004-1.107-.084-1.826-.084a3.922 3.922 0 0 0 -3.4 1.451 14.535 14.535 0 0 1 -2.36 2.356c-.286.285.025 1.884.429 1.884h36.8c.232 0 .449-.011.455-.471a2.551 2.551 0 0 0 -1.413-2.355 14.539 14.539 0 0 1 -3.3-2.826 2.31 2.31 0 0 0 -1.924-.753 3.183 3.183 0 0 0 -1.374.282 4.454 4.454 0 0 1 -2.142.472h-.213c-.548 0-1.336-1.038-1.884-1.884-.291-.449-1.311-.554-2.286-.554z" fill="#743924" transform="translate(184.544 276.168)"/><path d="m28.7 45.733c1.612 1.431 2.613 4.172 1.238 6.13-.387.611-.9 1-.923 1.677a5.94 5.94 0 0 0 .377 2.15 4.18 4.18 0 0 1 -.17 2.767c-.206-.558-.34-1.128-.546-1.607-.23-.547-.61-.8-.88-1.371a3.66 3.66 0 0 1 .081-4.042 5.178 5.178 0 0 0 .942-1.476c.4-1.37.061-2.678-.118-4.228z" fill="#743924" transform="translate(170.637 265.168)"/><path d="m37.987 45.733c1.612 1.431 2.613 4.172 1.238 6.13-.387.611-.9 1-.923 1.677a5.94 5.94 0 0 0 .377 2.15 4.18 4.18 0 0 1 -.17 2.767c-.206-.558-.34-1.128-.546-1.607-.23-.547-.61-.8-.88-1.371a3.66 3.66 0 0 1 .081-4.042 5.179 5.179 0 0 0 .942-1.476c.4-1.37.061-2.678-.118-4.228z" fill="#743924" transform="translate(165.646 265.168)"/><path d="m46.973 45.733c1.538 1.168 2.754 3.365 1.865 5.3a5.6 5.6 0 0 1 -1.208 1.6c-.313.342-.438.447-.492.863a4.622 4.622 0 0 0 .505 2.091 3.657 3.657 0 0 1 -.015 2.871 15.726 15.726 0 0 0 -.581-1.629 1.917 1.917 0 0 0 -.415-.549 4.566 4.566 0 0 1 -1.043-1.68 2.907 2.907 0 0 1 .649-3.286 3.967 3.967 0 0 0 1.21-1.646 9.007 9.007 0 0 0 -.476-3.936z" fill="#743924" transform="translate(161.016 265.168)"/><path d="m91.285 13.82c0 1.151-.023 1.336.092 1.554.138.23.438.242.921.288.081.012.1.023.1.138s-.023.138-.115.138c-.542-.012-1.163-.035-1.692-.035-.5 0-1.106.012-1.624.035-.069 0-.081-.012-.081-.127s.012-.138.081-.15c.472-.046.691-.046.817-.288a3.689 3.689 0 0 0 .15-1.554v-4.179c0-1.105-.012-1.255-.15-1.508-.1-.219-.368-.23-.852-.276-.069-.012-.092-.023-.092-.15s.023-.161.092-.161c.53.012 1.151.046 1.658.046.53 0 1.117-.035 1.612-.046.1 0 .138.023.138.161s-.035.138-.115.15c-.437.046-.691.046-.829.276a4.526 4.526 0 0 0 -.115 1.508v1.635c.737.035 1.382.035 2.061.035s1.278 0 2-.035v-1.635c0-1.105 0-1.266-.115-1.508s-.4-.23-.887-.276c-.081-.012-.092-.023-.092-.15s.023-.161.1-.161c.541.012 1.163.046 1.692.046.5 0 1.082-.035 1.589-.046.115 0 .138.023.138.15s-.023.15-.127.161c-.449.046-.668.046-.794.276a3.593 3.593 0 0 0 -.146 1.508v4.18c0 1.151.012 1.312.15 1.554s.4.242.9.288c.069.012.081.035.081.15s-.023.127-.1.127c-.565-.012-1.163-.035-1.669-.035-.53 0-1.129.023-1.635.035-.092 0-.1-.012-.1-.127s.023-.138.1-.15c.461-.046.668-.046.794-.288a4.2 4.2 0 0 0 .138-1.554v-2.027c-.725-.046-1.336-.046-2-.046s-1.325 0-2.061.046z" fill="#743924" transform="translate(138.164 285.912)"/><path d="m118.623 11.525a4.462 4.462 0 0 1 -8.923.023 4.462 4.462 0 0 1 8.923-.023zm-7.323 0c0 2.429 1.14 4.007 2.855 4.007s2.867-1.578 2.867-3.973c0-2.441-1.174-4.007-2.867-4.007s-2.855 1.589-2.855 3.973z" fill="#743924" transform="translate(127.216 286.111)"/><path d="m133.343 9.641c0-1.059-.012-1.243-.127-1.474-.115-.207-.368-.207-.656-.207a2.173 2.173 0 0 0 -1.37.4 3.576 3.576 0 0 0 -.83 1.24c-.023.058-.046.092-.184.069s-.127-.058-.127-.127c.092-.587.173-1.4.219-1.992 1.313.035 2.533.046 3.788.046 1.22 0 2.487-.012 3.811-.046.046.587.127 1.4.207 1.992 0 .069 0 .1-.127.127-.15.023-.173-.012-.2-.069a3.186 3.186 0 0 0 -.806-1.232 2.171 2.171 0 0 0 -1.405-.4c-.288 0-.518-.023-.679.23a3.363 3.363 0 0 0 -.15 1.451v4.18c0 1.151-.012 1.278.1 1.531.115.23.449.242.887.288.081.012.1.035.1.15s-.023.15-.115.15c-.5-.023-1.14-.035-1.658-.035s-1.14.012-1.589.035c-.081 0-.1-.023-.1-.138s.023-.15.1-.161c.4-.046.668-.058.794-.288a4.364 4.364 0 0 0 .1-1.531v-4.189z" fill="#743924" transform="translate(116.54 285.911)"/><path d="m150.636 13.821a3.333 3.333 0 0 0 .161 1.393c.184.311.6.334 1.105.334a2.854 2.854 0 0 0 1.981-.553 4.678 4.678 0 0 0 .921-1.174c.035-.081.069-.115.184-.081.15.046.138.092.127.161a14.242 14.242 0 0 1 -.6 2.038c-1.013-.023-2.072-.035-3.028-.035-1.013 0-2.118.012-3.143.035-.081 0-.1-.023-.1-.138s.023-.138.1-.15c.438-.046.633-.058.76-.3a3.988 3.988 0 0 0 .15-1.531v-4.179c0-1.105-.011-1.255-.138-1.508-.115-.219-.357-.23-.84-.276-.081-.012-.1-.023-.1-.15s.023-.161.1-.161c1.013.035 2.072.046 3.051.046.945 0 1.958-.012 2.959-.046.046.587.127 1.359.219 1.957.011.069-.012.115-.127.138s-.172-.012-.2-.081a3.008 3.008 0 0 0 -.783-1.186 2.513 2.513 0 0 0 -1.727-.414c-.414 0-.771.023-.922.288a3.742 3.742 0 0 0 -.115 1.393v1.681c.184.012.449.012.645.012a2.851 2.851 0 0 0 1.451-.253 1.238 1.238 0 0 0 .449-.783c.012-.069.035-.1.173-.1s.138.035.138.115c-.012.414-.023.817-.023 1.209 0 .426.011.921.023 1.336 0 .092-.012.127-.138.127s-.15-.035-.173-.115a1.515 1.515 0 0 0 -.461-.863 3.072 3.072 0 0 0 -1.439-.276c-.2 0-.461 0-.645.012v2.084z" fill="#743924" transform="translate(106.965 285.911)"/><path d="m166.51 13.821a3.559 3.559 0 0 0 .15 1.393c.2.311.61.334 1.106.334a2.991 2.991 0 0 0 1.969-.587 4.292 4.292 0 0 0 .9-1.151c.046-.081.069-.1.2-.069s.127.092.115.161a15.9 15.9 0 0 1 -.6 2.038c-1.025-.023-2.084-.035-3.039-.035-1.013 0-2.107.012-3.132.035-.081 0-.1-.023-.1-.138s.023-.138.1-.15c.437-.046.656-.058.794-.3a3.764 3.764 0 0 0 .15-1.531v-4.18c0-1.105-.011-1.255-.138-1.508-.115-.219-.369-.23-.829-.276-.092-.012-.115-.023-.115-.15s.023-.161.115-.161c.5.012 1.106.046 1.635.046s1.14-.035 1.635-.046c.092 0 .127.023.127.161s-.035.138-.1.15c-.437.046-.679.046-.806.276a4.157 4.157 0 0 0 -.127 1.508v4.18z" fill="#743924" transform="translate(98.712 285.911)"/><path d="m94.535 42.2a18.914 18.914 0 0 1 -5.786 8.949c-.085.065-.3-.108-.235-.194a24.355 24.355 0 0 0 3.331-7.332 22.007 22.007 0 0 0 .6-3.148c2.584.626 3.075.841 3.075 1.165 0 .237-.256.388-.982.56zm2.84-3.925a18.313 18.313 0 0 0 -.15-3.019c2.711.28 3.1.367 3.1.69 0 .259-.192.41-.833.6v7.742c0 4.248.107 6.642.107 7.893 0 .906-.171 1.4-.7 1.768a3.671 3.671 0 0 1 -1.857.5c-.449 0-.6-.151-.662-.539-.064-.8-.619-1.315-2.456-1.855-.107-.022-.107-.3 0-.3 1.025.086 2.306.172 3.118.172.256 0 .342-.065.342-.3v-13.355zm8.882 12.205c-.79 0-1-.474-1.345-2.48a16.008 16.008 0 0 0 -3.139-7.181c-.064-.086.15-.237.235-.172 3.267 2.48 5.616 5.909 5.616 8.151 0 1.014-.512 1.682-1.367 1.682z" fill="#743924" transform="translate(138.28 270.621)"/><path d="m136.689 50.019c0 .6-.342.863-1.068.863-.662 0-.94-.194-.94-.711 0-1.359.15-3.062.15-8.5 0-2.006-.021-4.011-.107-6.017a13.919 13.919 0 0 1 2.2.992h5.018c.747-.841.918-.97 1.089-.97.213 0 .406.13 1.132.711.32.259.449.41.449.582 0 .194-.15.367-.6.647v1.919c0 5.068.107 8.776.107 9.92 0 .56-.406.841-1.132.841-.555 0-.832-.194-.832-.669v-.755h-5.466v1.143zm1.836-7.763v-5.111h-1.836v5.111zm-1.836 6.124h1.836v-5.629h-1.836zm5.466-11.235h-1.855v5.111h1.858zm0 5.607h-1.855v5.628h1.858v-5.629zm7.964 5c0 2.2.064 3.8.064 4.722a2.4 2.4 0 0 1 -.363 1.38 2.371 2.371 0 0 1 -2.049.777c-.32 0-.385-.065-.449-.5-.171-.863-.7-1.186-2.733-1.618-.129-.022-.107-.345.021-.345 1 .065 2.114.13 2.968.13.406 0 .47-.065.47-.431v-12.9h-2.071a7.118 7.118 0 0 0 -1.388.173l-.235-.841a9.669 9.669 0 0 0 1.623.173h4.612c1.025-1.294 1.281-1.466 1.43-1.466.192 0 .427.172 1.431 1.013.449.389.619.582.619.733s-.064.215-.277.215h-3.672v8.777z" fill="#743924" transform="translate(113.984 270.41)"/><ellipse cx="204.109" cy="308.708" fill="none" rx="18.949" ry="18.511" stroke="#743924" stroke-miterlimit="10"/></svg>